<svg xmlns="http://www.w3.org/2000/svg" xmlns:xlink="http://www.w3.org/1999/xlink" viewBox="0,0,256,256" width="50px" height="50px" fill-rule="nonzero"><g fill="#ffffff" fill-rule="nonzero" stroke="none" stroke-width="1" stroke-linecap="butt" stroke-linejoin="miter" stroke-miterlimit="10" stroke-dasharray="" stroke-dashoffset="0" font-family="none" font-weight="none" font-size="none" text-anchor="none" style="mix-blend-mode: normal"><g transform="scale(5.12,5.12)"><path d="M13,4c-4.962,0 -9,4.037 -9,9v24c0,4.963 4.038,9 9,9h24c4.962,0 9,-4.037 9,-9v-24c0,-4.963 -4.038,-9 -9,-9zM13,6h24c3.86,0 7,3.141 7,7v24c0,3.859 -3.14,7 -7,7h-24c-3.86,0 -7,-3.141 -7,-7v-24c0,-3.859 3.14,-7 7,-7zM22.94336,11.7832c-0.55,0 -0.87306,0.26786 -0.91406,0.75586c-0.027,0.495 0.2623,0.78338 0.6543,0.85938c0.151,0.027 0.30798,0.027 0.45898,0c0.358,-0.055 0.6273,-0.34417 0.6543,-0.70117c0.034,-0.419 -0.1583,-0.74319 -0.5293,-0.86719c-0.103,-0.034 -0.21422,-0.05387 -0.32422,-0.04687zM14.80469,14.08398c-0.5392,-0.00164 -1.0377,0.17844 -1.50195,0.52344c-0.041,0.041 -0.08953,0.07652 -0.14453,0.10352c-0.014,-0.007 -0.02539,-0.01449 -0.02539,-0.02149c-0.021,-0.069 -0.03564,-0.13803 -0.05664,-0.20703c-0.055,-0.172 -0.12359,-0.23437 -0.30859,-0.23437c-0.206,0 -0.419,0.007 -0.625,0c-0.158,-0.007 -0.30211,0.01567 -0.41211,0.13867c0,2.405 0.00081,4.81684 0.00781,7.21484c0.089,0.144 0.22677,0.17106 0.38477,0.16406c0.247,-0.007 0.49519,0 0.74219,0c0.433,0 0.43359,0.00022 0.43359,-0.42578v-1.95703c0,-0.048 -0.02261,-0.10353 0.02539,-0.14453c0.344,0.268 0.76427,0.43361 1.19726,0.47461c0.605,0.062 1.15424,-0.08895 1.61524,-0.50195c0.337,-0.309 0.58384,-0.70844 0.71484,-1.14844c0.184,-0.561 0.19644,-1.13198 0.14844,-1.70898c-0.027,-0.357 -0.12358,-0.70825 -0.26758,-1.03125c-0.282,-0.591 -0.716,-1.02478 -1.375,-1.17578c-0.189,-0.04125 -0.373,-0.06195 -0.55273,-0.0625zM28.26367,14.08789c-0.17175,0 -0.34362,0.01823 -0.51562,0.05273c-0.447,0.082 -0.84466,0.27967 -1.22266,0.51367c-0.048,0.028 -0.0892,0.07617 -0.1582,0.07617c-0.034,-0.103 -0.05389,-0.19306 -0.08789,-0.28906c-0.042,-0.116 -0.11819,-0.19141 -0.24219,-0.19141h-0.85742c-0.082,0 -0.16636,0.04886 -0.19336,0.13086c-0.014,0.055 -0.01953,0.11102 -0.01953,0.16602v4.76758c0,0.233 0.05978,0.30273 0.30078,0.30273h0.92188c0.254,0 0.30859,-0.05459 0.30859,-0.30859v-3.66406c-0.013,-0.055 0.02117,-0.11686 0.07617,-0.13086c0.372,-0.179 0.79113,-0.26137 1.20313,-0.23437c0.234,0.013 0.43247,0.17811 0.48047,0.41211c0.027,0.116 0.03516,0.24042 0.03516,0.35742v3.25c0,0.254 0.05459,0.31641 0.30859,0.31641h0.72656c0.11,0 0.21341,-0.00081 0.31641,-0.00781c0.096,0 0.17188,-0.06806 0.17188,-0.16406c0.014,-0.068 0.01367,-0.13022 0.01367,-0.19922v-3.61328c-0.007,-0.055 0.02703,-0.111 0.08203,-0.125c0.371,-0.172 0.77859,-0.25356 1.18359,-0.22656c0.22,0.014 0.4118,0.16395 0.4668,0.37695c0.034,0.124 0.04802,0.24791 0.04102,0.37891v3.18164c0,0.076 -0.00033,0.15056 0.01367,0.22656c0.014,0.082 0.08206,0.1512 0.16406,0.1582c0.055,0.007 0.11102,0.00781 0.16602,0.00781h0.83789c0.309,0 0.34961,-0.04061 0.34961,-0.34961v-3.56055c0,-0.083 0.00114,-0.15642 -0.00586,-0.23242c-0.028,-0.357 -0.12572,-0.68708 -0.38672,-0.95508c-0.275,-0.288 -0.63144,-0.39892 -1.02344,-0.41992c-0.543,-0.027 -1.07955,0.09675 -1.56055,0.34375c-0.186,0.096 -0.36316,0.20559 -0.53516,0.30859c-0.007,-0.014 -0.01486,-0.01253 -0.00586,-0.01953c-0.014,-0.014 -0.02702,-0.02783 -0.04102,-0.04883c-0.185,-0.275 -0.47387,-0.46616 -0.79687,-0.53516c-0.172,-0.0345 -0.34388,-0.05273 -0.51562,-0.05273zM36.98633,14.13477c-0.22925,-0.02238 -0.45945,-0.01878 -0.68945,0.01172c-1.086,0.124 -1.79419,0.72277 -2.11719,1.75977c-0.227,0.708 -0.19867,1.42953 -0.01367,2.14453c0.241,0.914 0.84577,1.45644 1.75977,1.64844c0.522,0.117 1.04927,0.09567 1.57227,0.01367c0.275,-0.048 0.5515,-0.1177 0.8125,-0.2207c0.158,-0.062 0.24137,-0.15694 0.23438,-0.33594c-0.007,-0.165 0,-0.33681 0,-0.50781c0,-0.206 -0.0832,-0.2687 -0.2832,-0.2207c-0.2,0.048 -0.39084,0.08886 -0.58984,0.13086c-0.426,0.089 -0.86697,0.08867 -1.29297,0.01367c-0.584,-0.117 -0.96173,-0.61733 -0.92773,-1.23633c0.061,0.007 0.12941,0.01334 0.19141,0.02734c0.515,0.096 1.04455,0.10348 1.56055,0.02148c0.302,-0.041 0.59137,-0.13139 0.85938,-0.27539c0.309,-0.179 0.53486,-0.42553 0.63086,-0.76953c0.241,-0.866 -0.13125,-1.7405 -1.03125,-2.0625c-0.22,-0.072 -0.44653,-0.1202 -0.67578,-0.14258zM21.22656,14.19531c-0.447,-0.034 -0.893,0.10391 -1.25,0.37891c-0.138,0.109 -0.26858,0.22561 -0.39258,0.34961c-0.028,0.041 -0.06919,0.06803 -0.11719,0.08203c-0.041,-0.185 -0.08186,-0.35734 -0.13086,-0.52734c-0.048,-0.172 -0.12959,-0.23437 -0.30859,-0.23437h-0.66016c-0.316,0 -0.34961,0.03556 -0.34961,0.35156v4.67188c0,0.055 -0.00114,0.11102 0.00586,0.16602c0.007,0.09 0.07702,0.16488 0.16602,0.17188c0.048,0.007 0.10239,0.00586 0.15039,0.00586h0.89453c0.048,0 0.10239,0.00114 0.15039,-0.00586c0.089,0 0.15902,-0.0692 0.16602,-0.1582c0.007,-0.062 0.00586,-0.11769 0.00586,-0.17969v-3.29687c0,-0.076 -0.0003,-0.14569 0.0957,-0.17969c0.433,-0.144 0.87984,-0.23241 1.33984,-0.19141c0.096,0.007 0.1872,0.01286 0.2832,0.00586c0.123,-0.014 0.17222,-0.06155 0.19922,-0.18555c0.014,-0.096 0.02067,-0.18525 0.01367,-0.28125c0,-0.234 0.00619,-0.47499 -0.00781,-0.70898c-0.013,-0.172 -0.07491,-0.22738 -0.25391,-0.23438zM22.38086,14.24219c-0.165,0.007 -0.22738,0.06937 -0.23437,0.23437v2.43945c0,0.784 0.00114,1.56612 -0.00586,2.32813c0,0.055 -0.00114,0.11102 0.00586,0.16602c0.007,0.097 0.08955,0.17269 0.18555,0.17969c0.034,0.007 0.06366,0.00586 0.09766,0.00586h0.95508c0.041,0 0.07619,0.00114 0.11719,-0.00586c0.089,-0.007 0.15706,-0.0692 0.16406,-0.1582c0.007,-0.076 0.01367,-0.15252 0.01367,-0.22852v-4.57422c0,-0.062 0.00114,-0.11769 -0.00586,-0.17969c-0.014,-0.158 -0.0627,-0.20703 -0.2207,-0.20703c-0.357,-0.007 -0.71527,-0.007 -1.07227,0zM36.68164,15.19141c0.124,0.007 0.24628,0.03403 0.36328,0.08203c0.179,0.076 0.29541,0.24159 0.31641,0.43359c0.021,0.117 0.01352,0.24142 -0.02148,0.35742c-0.082,0.247 -0.28148,0.34944 -0.52148,0.39844c-0.144,0.034 -0.29527,0.0472 -0.44727,0.0332c-0.268,0 -0.54255,-0.01955 -0.81055,-0.06055c-0.103,-0.013 -0.10384,-0.01305 -0.08984,-0.12305c0.021,-0.165 0.06886,-0.32361 0.13086,-0.47461c0.206,-0.502 0.64008,-0.67349 1.08008,-0.64649zM14.30273,15.25c0.10059,0.00105 0.20364,0.01075 0.30664,0.03125c0.289,0.041 0.53534,0.22614 0.65234,0.49414c0.103,0.22 0.16569,0.46017 0.17969,0.70117c0.041,0.439 0.04002,0.87983 -0.08398,1.29883c-0.048,0.213 -0.15645,0.40383 -0.31445,0.54883c-0.179,0.151 -0.39981,0.24219 -0.63281,0.24219c-0.35,0.021 -0.69491,-0.0557 -1.00391,-0.2207c-0.076,-0.034 -0.12419,-0.10941 -0.11719,-0.19141v-1.24414c0,-0.412 0.007,-0.82433 0,-1.23633c-0.007,-0.096 0.04967,-0.17889 0.13867,-0.21289c0.2835,-0.13425 0.57322,-0.21408 0.875,-0.21094zM18.53906,21.92969c-0.051,-0.007 -0.1023,-0.00019 -0.1543,0.00781c-0.435,0.037 -0.75206,0.33814 -0.78906,0.74414c-0.044,0.508 0.19144,0.86166 0.64844,0.97266c0.081,0.014 0.16119,0.0293 0.24219,0.0293c0.597,0.015 1.04728,-0.32314 0.98828,-0.99414c-0.014,-0.31 -0.212,-0.57455 -0.5,-0.68555c-0.14,-0.059 -0.28855,-0.08922 -0.43555,-0.07422zM24.70313,21.98047c-0.28,0 -0.33203,0.05203 -0.33203,0.33203v2.38867c0,0.052 0.02137,0.10425 -0.01562,0.15625c-0.066,-0.007 -0.1023,-0.05303 -0.1543,-0.08203c-0.767,-0.45 -1.57081,-0.5303 -2.38281,-0.1543c-0.568,0.265 -0.92044,0.7455 -1.14844,1.3125c-0.221,0.546 -0.27477,1.12112 -0.25977,1.70313c0,0.546 0.12514,1.08236 0.36914,1.56836c0.28,0.538 0.68734,0.95191 1.27734,1.12891c0.804,0.251 1.55523,0.12519 2.24023,-0.38281c0.052,-0.029 0.08048,-0.0807 0.14648,-0.0957c0.037,0.081 0.06703,0.16981 0.08203,0.25781c0.029,0.118 0.13281,0.19922 0.25781,0.19922h0.17773c0.265,0 0.52225,0.007 0.78125,0c0.206,0 0.26544,-0.06725 0.27344,-0.28125v-7.76953c-0.007,-0.229 -0.06611,-0.28125 -0.28711,-0.28125zM35.96875,24.38672c-0.23488,-0.00825 -0.47103,0.00647 -0.70703,0.04297c-0.995,0.147 -1.71064,0.67709 -2.05664,1.62109c-0.339,0.9 -0.33119,1.88811 0.00781,2.78711c0.295,0.818 0.88442,1.33583 1.73242,1.54883c0.45,0.111 0.92077,0.14022 1.38477,0.07422c1.548,-0.184 2.18997,-1.358 2.29297,-2.375c0,0 0.03711,-0.30531 0.03711,-0.44531l-0.00781,-0.61719c0.007,-0.084 -0.02148,-0.25667 -0.02148,-0.26367c-0.015,-0.14 -0.04308,-0.28106 -0.08008,-0.41406c-0.273,-0.973 -0.88586,-1.61523 -1.88086,-1.86523c-0.2325,-0.0555 -0.4663,-0.0855 -0.70117,-0.09375zM29.84961,24.45117c-1.239,0.029 -2.18241,0.65553 -2.56641,1.89453c-0.258,0.818 -0.2207,1.6527 0.0293,2.4707c0.258,0.841 0.84945,1.34913 1.68945,1.57813c0.361,0.088 0.73647,0.12533 1.10547,0.11133c0.538,-0.007 1.07498,-0.11173 1.58398,-0.30273c0.214,-0.081 0.26563,-0.15481 0.26563,-0.38281v-0.53125c-0.007,-0.214 -0.09655,-0.28833 -0.31055,-0.23633c-0.162,0.044 -0.31652,0.08214 -0.47852,0.11914c-0.494,0.118 -1.00972,0.13878 -1.51172,0.05078c-0.501,-0.096 -0.84066,-0.38276 -0.97266,-0.88477c-0.037,-0.147 -0.06703,-0.29422 -0.08203,-0.44922c0.037,0 0.07452,-0.00133 0.10352,0.01367c0.488,0.087 0.98256,0.12489 1.47656,0.08789c0.428,-0.029 0.85428,-0.11041 1.23828,-0.31641c0.391,-0.192 0.66314,-0.55442 0.74414,-0.98242c0.052,-0.265 0.05314,-0.54555 -0.00586,-0.81055c-0.155,-0.664 -0.57498,-1.07506 -1.20898,-1.28906c-0.354,-0.111 -0.73061,-0.15563 -1.09961,-0.14062zM11.41602,24.56836c-0.148,0 -0.19974,0.0737 -0.17774,0.2207c0.022,0.096 0.05366,0.20106 0.09766,0.28906c0.443,1.165 0.89198,2.32247 1.33398,3.48047c0.184,0.486 0.37655,0.9798 0.56055,1.4668c0.081,0.206 0.21241,0.30778 0.44141,0.30078c0.324,-0.007 0.64866,-0.007 0.97266,0c0.163,0.015 0.31714,-0.08719 0.36914,-0.24219c0.015,-0.045 0.03773,-0.08881 0.05273,-0.13281c0.494,-1.283 0.98842,-2.57247 1.48242,-3.85547l0.44141,-1.17187c0.096,-0.266 0.03586,-0.34766 -0.24414,-0.34766h-1.11914c-0.133,0 -0.25988,0.07989 -0.29687,0.21289l-0.04297,0.13477c-0.339,1.143 -0.67858,2.27692 -1.01758,3.41992c-0.045,0.147 -0.08881,0.28855 -0.13281,0.43555c-0.014,0 -0.02262,-0.00081 -0.01562,-0.00781c-0.303,-1.025 -0.59644,-2.05703 -0.89844,-3.08203c-0.089,-0.28 -0.17095,-0.56766 -0.25195,-0.84766c-0.044,-0.155 -0.12378,-0.27344 -0.30078,-0.27344c-0.412,0 -0.83391,-0.007 -1.25391,0zM18.00195,24.57617c-0.229,0 -0.28987,0.06592 -0.29687,0.29492v5.10156c0,0.044 0.00081,0.09662 0.00781,0.14063c0.015,0.14 0.08151,0.21289 0.22852,0.21289c0.398,0.007 0.7895,0.007 1.1875,0c0.148,-0.007 0.21352,-0.0737 0.22852,-0.2207v-2.6543v-2.58008c0,-0.229 -0.06592,-0.29492 -0.29492,-0.29492zM29.70117,25.58203c0.09956,-0.00906 0.2038,-0.00734 0.31055,0.00391c0.037,0 0.06456,0.01562 0.10156,0.01562c0.516,0.081 0.64187,0.49263 0.54688,0.89063c-0.074,0.295 -0.31684,0.40603 -0.58984,0.45703c-0.147,0.029 -0.30203,0.04411 -0.45703,0.03711c-0.302,-0.007 -0.59758,-0.02922 -0.89258,-0.07422c-0.066,-0.007 -0.09408,-0.03456 -0.08008,-0.10156c0.052,-0.288 0.11792,-0.56869 0.29492,-0.80469c0.20475,-0.27075 0.46694,-0.39664 0.76563,-0.42383zM23.11719,25.64453c0.391,-0.037 0.78177,0.03722 1.13477,0.19922c0.088,0.029 0.13981,0.11689 0.13281,0.21289c-0.014,0.458 -0.00586,0.90061 -0.00586,1.34961v1.3418c0.015,0.088 -0.03619,0.17103 -0.11719,0.20703c-0.354,0.199 -0.7592,0.2797 -1.1582,0.2207c-0.339,-0.037 -0.63406,-0.24192 -0.78906,-0.54492c-0.118,-0.236 -0.18503,-0.48809 -0.20703,-0.74609c-0.059,-0.465 -0.02211,-0.93672 0.08789,-1.38672c0.037,-0.125 0.08244,-0.24138 0.14844,-0.35937c0.155,-0.288 0.44944,-0.47214 0.77344,-0.49414zM35.67578,25.68164c0.14,-0.015 0.27992,-0.01633 0.41992,0.01367c0.295,0.059 0.53887,0.25144 0.67188,0.52344c0.125,0.258 0.19789,0.54698 0.21289,0.83398c0.007,0.133 0.01581,0.26348 0.00781,0.39648c0.021,0.326 -0.01552,0.64331 -0.10352,0.94531c-0.044,0.155 -0.11203,0.29473 -0.20703,0.42773c-0.162,0.229 -0.41922,0.37644 -0.69922,0.39844c-0.14,0.015 -0.27992,0.01438 -0.41992,-0.01562c-0.31,-0.059 -0.56836,-0.26473 -0.69336,-0.55273c-0.111,-0.229 -0.17722,-0.47752 -0.19922,-0.72852c-0.037,-0.435 -0.04441,-0.87083 0.05859,-1.29883c0.037,-0.17 0.11122,-0.33833 0.19922,-0.48633c0.162,-0.265 0.44195,-0.43503 0.75195,-0.45703zM35.67578,32.66016c-0.419,0.012 -0.83128,0.05272 -1.23828,0.13672c-0.527,0.126 -1.0238,0.31777 -1.4668,0.63477c-0.072,0.042 -0.13364,0.10197 -0.18164,0.16797c-0.042,0.071 -0.05958,0.14284 -0.01758,0.21484c0.042,0.072 0.11536,0.07827 0.19336,0.07227l0.72266,-0.08984c0.545,-0.072 1.09548,-0.09627 1.64648,-0.07227c0.198,0.012 0.38822,0.04742 0.57422,0.10742c0.197,0.06 0.32994,0.2335 0.33594,0.4375c0.012,0.12 0.00614,0.23938 -0.00586,0.35938c-0.042,0.33 -0.10908,0.6537 -0.20508,0.9707c-0.162,0.581 -0.36422,1.13622 -0.57422,1.69922c-0.024,0.06 -0.03502,0.11969 -0.04102,0.17969c0.006,0.114 0.07741,0.17453 0.19141,0.14453c0.072,-0.024 0.13741,-0.06514 0.19141,-0.11914c0.269,-0.251 0.50136,-0.54042 0.69336,-0.85742c0.527,-0.88 0.84583,-1.86662 0.92383,-2.89062c0.012,-0.174 0.00447,-0.34763 -0.01953,-0.51562c-0.018,-0.143 -0.10614,-0.27412 -0.24414,-0.32812c-0.101,-0.048 -0.20255,-0.08328 -0.31055,-0.11328c-0.383,-0.102 -0.77297,-0.12667 -1.16797,-0.13867zM12.74609,32.9668c-0.04187,0.00988 -0.08133,0.03195 -0.11133,0.06445c-0.06,0.065 -0.07702,0.15428 -0.04102,0.23828c0.024,0.06 0.06528,0.12011 0.11328,0.16211c0.204,0.192 0.40133,0.38431 0.61133,0.57031c2.251,1.993 4.83053,3.36292 7.76953,4.04492c0.85,0.197 1.7178,0.32853 2.5918,0.39453c0.33,0.024 0.65928,0.03669 0.98828,0.05469c0.239,-0.006 0.47975,-0.006 0.71875,0c0.952,-0.036 1.89698,-0.13864 2.83398,-0.30664c1.628,-0.305 3.2085,-0.83794 4.6875,-1.58594c0.784,-0.395 1.52684,-0.86725 2.21484,-1.40625c0.084,-0.059 0.14926,-0.13656 0.19727,-0.22656c0.012,-0.024 0.02525,-0.05412 0.03125,-0.07812c0.048,-0.198 -0.07153,-0.40122 -0.26953,-0.44922c-0.12,-0.03 -0.25138,-0.01313 -0.35937,0.04688c-0.725,0.335 -1.46656,0.624 -2.22656,0.875c-1.443,0.479 -2.93341,0.81972 -4.44141,1.01172c-0.646,0.084 -1.29331,0.14411 -1.94531,0.16211c-1.209,0.042 -2.42395,-0.01211 -3.62695,-0.16211c-0.838,-0.108 -1.67009,-0.25722 -2.49609,-0.44922c-2.461,-0.574 -4.80803,-1.54405 -6.95703,-2.87305c-0.048,-0.03 -0.10225,-0.05412 -0.15625,-0.07813c-0.0415,-0.018 -0.08508,-0.01964 -0.12695,-0.00977z"></path></g></g></svg>