<svg version="1.1" id="Layer_1" xmlns="http://www.w3.org/2000/svg" xmlns:xlink="http://www.w3.org/1999/xlink" x="0px" y="0px"
	 width="387.9px" height="144px" viewBox="0 0 387.9 144" style="enable-background:new 0 0 387.9 144;" xml:space="preserve">
<style type="text/css">
	.st0{fill:#FFFFFF;}
</style>
<g>
	<path class="st0" d="M46.8,2c2.6,0,4.5,1.4,5.1,3.9L78,99.8l26.4-93.9c0.6-2.4,2.4-3.9,5.1-3.9h42.6c2,0,3.4,2,2.8,3.9l-42,134.3
		c-0.8,2.6-2.6,3.9-5.3,3.9h-60c-2.6,0-4.5-1.2-5.3-3.9L0.1,5.9C-0.5,4.1,1,2,3,2H46.8z M162.8,28.8c0-15.8,13-28.8,28.8-28.8
		s28.8,13,28.8,28.8s-13,28.8-28.8,28.8S162.8,44.6,162.8,28.8z M217.4,139.9c0,2.4-1.6,4.1-4.1,4.1h-43.4c-2.4,0-4.1-1.6-4.1-4.1
		V72.8c0-2.4,1.6-4.1,4.1-4.1h43.4c2.4,0,4.1,1.6,4.1,4.1V139.9z M232.2,138.9l41-65.9l-41-65.9C230.7,4.7,232,2,234.8,2h46.4
		c3.2,0,5.1,1,6.5,3.4l22.5,39.3l22.5-39.3C334.2,3,336,2,339.2,2h45.4c2.8,0,4.1,2.6,2.6,5.1l-41,65.9l41,65.9
		c1.4,2.4,0.2,5.1-2.6,5.1h-46.4c-3.2,0-5.1-1-6.5-3.4l-22.5-39.3l-22.5,39.3c-1.4,2.4-3.2,3.4-6.5,3.4h-45.4
		C232,144,230.7,141.4,232.2,138.9z"/>
</g>
</svg>
