<svg width="669" height="84" viewBox="0 0 669 84" fill="none" xmlns="http://www.w3.org/2000/svg">
<path d="M0.930001 80V17H58.35V27.53L13.44 27.62V43.1H52.5V52.28H13.44V69.56L58.35 69.47V80H0.930001ZM21.27 13.4L27.03 0.889994H38.28L28.56 13.4H21.27ZM180.9 81.17C161.64 81.17 145.98 66.59 145.98 48.59C145.98 30.59 161.64 16.01 180.9 16.01C194.67 16.01 206.55 23.57 212.22 34.46L200.16 38.6C195.93 32.12 189.54 28.25 180.9 28.25C169.11 28.25 158.94 36.89 158.94 48.59C158.94 59.39 168.48 68.84 180.9 68.84C190.26 68.84 196.11 64.16 199.98 58.67L212.22 62.81C206.55 73.61 194.67 81.17 180.9 81.17ZM316.244 80H303.824V17H340.454C352.784 17 362.234 25.55 362.234 38.33C362.234 47.96 357.734 55.25 349.724 58.67L361.604 80H347.204L336.494 60.2H316.244V80ZM316.244 27.44V49.76H336.314C339.284 49.76 349.184 49.22 349.184 38.42C349.184 30.14 343.154 27.44 336.044 27.44H316.244ZM656.269 17H668.779V83.06L622.789 41.66V80H610.369V15.02L656.269 57.32V17Z" fill="#B7B2C9"/>
<path d="M449.112 80L486.282 13.4L523.542 80H509.142L486.282 39.14L463.512 80H449.112ZM486.282 80C483.492 80 481.152 77.66 481.152 74.87C481.152 71.99 483.492 69.74 486.282 69.74C489.072 69.74 491.412 71.99 491.412 74.87C491.412 77.66 489.072 80 486.282 80Z" fill="#7400FF"/>
</svg>
