<svg width="768" height="400" viewBox="0 0 768 400" fill="none" xmlns="http://www.w3.org/2000/svg">
<rect x="0.5" y="0.5" width="767" height="399" rx="23.5" fill="url(#paint0_radial_102_1434)" stroke="#1E293B"/>
<mask id="mask0_102_1434" style="mask-type:luminance" maskUnits="userSpaceOnUse" x="0" y="0" width="768" height="400">
<rect x="0.5" y="0.5" width="767" height="399" rx="23.5" fill="white" stroke="white"/>
</mask>
<g mask="url(#mask0_102_1434)">
<rect opacity="0.64" x="154" y="39" width="460" height="1" fill="url(#paint1_linear_102_1434)"/>
<rect opacity="0.64" x="239" y="11" width="1" height="389" fill="url(#paint2_linear_102_1434)"/>
<rect opacity="0.64" x="528" y="11" width="1" height="389" fill="url(#paint3_linear_102_1434)"/>
<g filter="url(#filter0_bi_102_1434)">
<rect x="260" y="56" width="248" height="374" rx="32" fill="url(#paint4_linear_102_1434)"/>
</g>
<g filter="url(#filter1_b_102_1434)">
<rect x="266" y="62" width="236" height="432" rx="28" fill="url(#paint5_linear_102_1434)"/>
</g>
<g clip-path="url(#clip0_102_1434)">
<g filter="url(#filter2_d_102_1434)">
<rect x="280" y="197" width="208" height="28" rx="4" fill="white" fill-opacity="0.72"/>
</g>
<path d="M291.926 211.062V215H290.92V206.273H291.926V209.477H292.011C292.165 209.139 292.395 208.871 292.702 208.672C293.011 208.47 293.423 208.369 293.938 208.369C294.384 208.369 294.774 208.459 295.109 208.638C295.445 208.814 295.705 209.085 295.889 209.452C296.077 209.815 296.17 210.278 296.17 210.841V215H295.165V210.909C295.165 210.389 295.03 209.987 294.76 209.703C294.493 209.416 294.122 209.273 293.648 209.273C293.318 209.273 293.023 209.342 292.761 209.482C292.503 209.621 292.298 209.824 292.148 210.091C292 210.358 291.926 210.682 291.926 211.062ZM300.755 215.136C300.124 215.136 299.58 214.997 299.123 214.719C298.668 214.438 298.317 214.045 298.07 213.543C297.826 213.037 297.703 212.449 297.703 211.778C297.703 211.108 297.826 210.517 298.07 210.006C298.317 209.491 298.661 209.091 299.101 208.804C299.544 208.514 300.061 208.369 300.652 208.369C300.993 208.369 301.33 208.426 301.662 208.54C301.995 208.653 302.297 208.838 302.57 209.094C302.843 209.347 303.06 209.682 303.222 210.099C303.384 210.517 303.465 211.031 303.465 211.642V212.068H298.419V211.199H302.442C302.442 210.83 302.368 210.5 302.221 210.21C302.076 209.92 301.868 209.692 301.598 209.524C301.331 209.357 301.016 209.273 300.652 209.273C300.252 209.273 299.905 209.372 299.613 209.571C299.323 209.767 299.1 210.023 298.944 210.338C298.787 210.653 298.709 210.991 298.709 211.352V211.932C298.709 212.426 298.794 212.845 298.965 213.189C299.138 213.53 299.378 213.79 299.685 213.969C299.992 214.145 300.348 214.233 300.755 214.233C301.019 214.233 301.257 214.196 301.471 214.122C301.686 214.045 301.873 213.932 302.029 213.781C302.185 213.628 302.306 213.437 302.391 213.21L303.363 213.483C303.26 213.812 303.088 214.102 302.847 214.352C302.605 214.599 302.307 214.793 301.952 214.932C301.597 215.068 301.198 215.136 300.755 215.136ZM306 206.273V215H304.995V206.273H306ZM308.848 206.273V215H307.842V206.273H308.848ZM313.349 215.136C312.758 215.136 312.24 214.996 311.794 214.714C311.35 214.433 311.004 214.04 310.754 213.534C310.507 213.028 310.383 212.437 310.383 211.761C310.383 211.08 310.507 210.484 310.754 209.976C311.004 209.467 311.35 209.072 311.794 208.791C312.24 208.51 312.758 208.369 313.349 208.369C313.94 208.369 314.457 208.51 314.9 208.791C315.346 209.072 315.693 209.467 315.94 209.976C316.19 210.484 316.315 211.08 316.315 211.761C316.315 212.437 316.19 213.028 315.94 213.534C315.693 214.04 315.346 214.433 314.9 214.714C314.457 214.996 313.94 215.136 313.349 215.136ZM313.349 214.233C313.798 214.233 314.167 214.118 314.457 213.888C314.747 213.658 314.961 213.355 315.1 212.98C315.24 212.605 315.309 212.199 315.309 211.761C315.309 211.324 315.24 210.916 315.1 210.538C314.961 210.161 314.747 209.855 314.457 209.622C314.167 209.389 313.798 209.273 313.349 209.273C312.9 209.273 312.531 209.389 312.241 209.622C311.951 209.855 311.737 210.161 311.598 210.538C311.458 210.916 311.389 211.324 311.389 211.761C311.389 212.199 311.458 212.605 311.598 212.98C311.737 213.355 311.951 213.658 312.241 213.888C312.531 214.118 312.9 214.233 313.349 214.233ZM322.879 217.301C322.009 217.301 321.241 217.182 320.573 216.943C319.906 216.707 319.344 216.359 318.89 215.899C318.435 215.439 318.092 214.875 317.859 214.207C317.626 213.54 317.509 212.776 317.509 211.915C317.509 211.082 317.627 210.338 317.863 209.682C318.102 209.026 318.447 208.469 318.898 208.011C319.353 207.551 319.904 207.2 320.552 206.959C321.202 206.717 321.938 206.597 322.759 206.597C323.558 206.597 324.256 206.727 324.856 206.989C325.458 207.247 325.961 207.598 326.364 208.041C326.771 208.482 327.075 208.977 327.276 209.528C327.481 210.08 327.583 210.648 327.583 211.233C327.583 211.645 327.563 212.062 327.523 212.486C327.484 212.909 327.4 213.298 327.272 213.653C327.144 214.006 326.947 214.29 326.68 214.506C326.415 214.722 326.058 214.83 325.606 214.83C325.407 214.83 325.188 214.798 324.95 214.736C324.711 214.673 324.499 214.57 324.315 214.425C324.13 214.28 324.021 214.085 323.987 213.841H323.935C323.867 214.006 323.762 214.162 323.62 214.31C323.481 214.457 323.298 214.575 323.07 214.663C322.846 214.751 322.572 214.79 322.248 214.778C321.879 214.764 321.553 214.682 321.272 214.531C320.991 214.378 320.755 214.17 320.565 213.909C320.377 213.645 320.235 213.339 320.138 212.993C320.045 212.643 319.998 212.267 319.998 211.864C319.998 211.48 320.055 211.129 320.168 210.811C320.282 210.493 320.44 210.214 320.641 209.976C320.846 209.737 321.085 209.547 321.357 209.405C321.633 209.26 321.93 209.17 322.248 209.136C322.532 209.108 322.79 209.121 323.023 209.175C323.256 209.226 323.448 209.304 323.599 209.409C323.749 209.511 323.844 209.625 323.884 209.75H323.935V209.273H324.839V213.125C324.839 213.364 324.906 213.574 325.039 213.756C325.173 213.937 325.367 214.028 325.623 214.028C325.913 214.028 326.134 213.929 326.288 213.73C326.444 213.531 326.55 213.224 326.607 212.81C326.667 212.395 326.697 211.864 326.697 211.216C326.697 210.835 326.644 210.46 326.539 210.091C326.437 209.719 326.281 209.371 326.07 209.047C325.863 208.723 325.6 208.437 325.282 208.19C324.964 207.943 324.59 207.75 324.161 207.611C323.735 207.469 323.251 207.398 322.708 207.398C322.04 207.398 321.442 207.501 320.914 207.709C320.388 207.913 319.941 208.213 319.572 208.608C319.205 209 318.925 209.477 318.732 210.04C318.542 210.599 318.447 211.236 318.447 211.949C318.447 212.673 318.542 213.317 318.732 213.879C318.925 214.442 319.21 214.916 319.585 215.303C319.962 215.689 320.43 215.982 320.987 216.18C321.543 216.382 322.185 216.483 322.913 216.483C323.225 216.483 323.533 216.453 323.837 216.393C324.141 216.334 324.41 216.268 324.643 216.197C324.876 216.126 325.043 216.074 325.146 216.04L325.384 216.824C325.208 216.898 324.978 216.972 324.694 217.045C324.413 217.119 324.112 217.18 323.79 217.229C323.472 217.277 323.168 217.301 322.879 217.301ZM322.384 213.909C322.765 213.909 323.073 213.832 323.309 213.679C323.545 213.526 323.717 213.294 323.825 212.984C323.933 212.675 323.987 212.284 323.987 211.812C323.987 211.335 323.927 210.963 323.808 210.696C323.688 210.429 323.512 210.241 323.279 210.134C323.046 210.026 322.759 209.972 322.418 209.972C322.094 209.972 321.817 210.057 321.587 210.227C321.36 210.395 321.185 210.619 321.063 210.901C320.944 211.179 320.884 211.483 320.884 211.812C320.884 212.176 320.933 212.518 321.029 212.839C321.126 213.158 321.283 213.416 321.502 213.615C321.721 213.811 322.015 213.909 322.384 213.909ZM331.833 215.136C331.202 215.136 330.658 214.997 330.201 214.719C329.746 214.438 329.395 214.045 329.148 213.543C328.904 213.037 328.782 212.449 328.782 211.778C328.782 211.108 328.904 210.517 329.148 210.006C329.395 209.491 329.739 209.091 330.179 208.804C330.623 208.514 331.14 208.369 331.73 208.369C332.071 208.369 332.408 208.426 332.74 208.54C333.073 208.653 333.375 208.838 333.648 209.094C333.921 209.347 334.138 209.682 334.3 210.099C334.462 210.517 334.543 211.031 334.543 211.642V212.068H329.498V211.199H333.52C333.52 210.83 333.446 210.5 333.299 210.21C333.154 209.92 332.946 209.692 332.676 209.524C332.409 209.357 332.094 209.273 331.73 209.273C331.33 209.273 330.983 209.372 330.691 209.571C330.401 209.767 330.178 210.023 330.022 210.338C329.865 210.653 329.787 210.991 329.787 211.352V211.932C329.787 212.426 329.873 212.845 330.043 213.189C330.216 213.53 330.456 213.79 330.763 213.969C331.07 214.145 331.426 214.233 331.833 214.233C332.097 214.233 332.336 214.196 332.549 214.122C332.765 214.045 332.951 213.932 333.107 213.781C333.263 213.628 333.384 213.437 333.469 213.21L334.441 213.483C334.338 213.812 334.167 214.102 333.925 214.352C333.684 214.599 333.385 214.793 333.03 214.932C332.675 215.068 332.276 215.136 331.833 215.136ZM336.073 215V208.455H337.044V209.443H337.113C337.232 209.119 337.448 208.857 337.76 208.655C338.073 208.453 338.425 208.352 338.817 208.352C338.891 208.352 338.983 208.354 339.094 208.357C339.205 208.359 339.289 208.364 339.346 208.369V209.392C339.311 209.384 339.233 209.371 339.111 209.354C338.992 209.334 338.865 209.324 338.732 209.324C338.414 209.324 338.13 209.391 337.88 209.524C337.632 209.655 337.436 209.837 337.292 210.07C337.15 210.3 337.078 210.562 337.078 210.858V215H336.073ZM342.998 215.136C342.384 215.136 341.855 214.991 341.412 214.702C340.969 214.412 340.628 214.013 340.39 213.504C340.151 212.996 340.032 212.415 340.032 211.761C340.032 211.097 340.154 210.51 340.398 210.001C340.645 209.49 340.989 209.091 341.429 208.804C341.873 208.514 342.39 208.369 342.98 208.369C343.441 208.369 343.855 208.455 344.225 208.625C344.594 208.795 344.897 209.034 345.132 209.341C345.368 209.648 345.515 210.006 345.571 210.415H344.566C344.489 210.116 344.319 209.852 344.054 209.622C343.793 209.389 343.441 209.273 342.998 209.273C342.605 209.273 342.262 209.375 341.966 209.58C341.674 209.781 341.445 210.067 341.28 210.436C341.118 210.803 341.037 211.233 341.037 211.727C341.037 212.233 341.117 212.673 341.276 213.048C341.438 213.423 341.665 213.714 341.958 213.922C342.253 214.129 342.6 214.233 342.998 214.233C343.259 214.233 343.496 214.188 343.709 214.097C343.922 214.006 344.103 213.875 344.25 213.705C344.398 213.534 344.503 213.33 344.566 213.091H345.571C345.515 213.477 345.374 213.825 345.15 214.135C344.928 214.442 344.634 214.686 344.267 214.868C343.904 215.047 343.48 215.136 342.998 215.136ZM348.968 215.153C348.553 215.153 348.176 215.075 347.838 214.919C347.5 214.76 347.232 214.531 347.033 214.233C346.834 213.932 346.735 213.568 346.735 213.142C346.735 212.767 346.809 212.463 346.956 212.23C347.104 211.994 347.301 211.81 347.549 211.676C347.796 211.543 348.069 211.443 348.367 211.378C348.668 211.31 348.971 211.256 349.275 211.216C349.672 211.165 349.995 211.126 350.242 211.101C350.492 211.072 350.674 211.026 350.787 210.96C350.904 210.895 350.962 210.781 350.962 210.619V210.585C350.962 210.165 350.847 209.838 350.617 209.605C350.39 209.372 350.044 209.256 349.581 209.256C349.101 209.256 348.725 209.361 348.452 209.571C348.179 209.781 347.988 210.006 347.877 210.244L346.922 209.903C347.093 209.506 347.32 209.196 347.604 208.974C347.891 208.75 348.203 208.594 348.542 208.506C348.882 208.415 349.218 208.369 349.547 208.369C349.757 208.369 349.999 208.395 350.272 208.446C350.547 208.494 350.813 208.595 351.069 208.749C351.327 208.902 351.542 209.134 351.712 209.443C351.882 209.753 351.968 210.168 351.968 210.688V215H350.962V214.114H350.911C350.843 214.256 350.729 214.408 350.57 214.57C350.411 214.732 350.199 214.869 349.935 214.983C349.671 215.097 349.348 215.153 348.968 215.153ZM349.121 214.25C349.519 214.25 349.854 214.172 350.127 214.016C350.402 213.859 350.61 213.658 350.749 213.411C350.891 213.163 350.962 212.903 350.962 212.631V211.71C350.919 211.761 350.826 211.808 350.681 211.851C350.539 211.891 350.374 211.926 350.186 211.957C350.002 211.986 349.821 212.011 349.645 212.034C349.472 212.054 349.331 212.071 349.223 212.085C348.962 212.119 348.718 212.175 348.49 212.251C348.266 212.325 348.084 212.437 347.945 212.588C347.809 212.736 347.74 212.937 347.74 213.193C347.74 213.543 347.87 213.807 348.128 213.986C348.39 214.162 348.721 214.25 349.121 214.25ZM354.809 211.062V215H353.803V208.455H354.775V209.477H354.86C355.013 209.145 355.246 208.878 355.559 208.676C355.871 208.472 356.275 208.369 356.769 208.369C357.212 208.369 357.6 208.46 357.933 208.642C358.265 208.821 358.523 209.094 358.708 209.46C358.893 209.824 358.985 210.284 358.985 210.841V215H357.979V210.909C357.979 210.395 357.846 209.994 357.579 209.707C357.312 209.418 356.945 209.273 356.479 209.273C356.158 209.273 355.871 209.342 355.619 209.482C355.369 209.621 355.171 209.824 355.026 210.091C354.881 210.358 354.809 210.682 354.809 211.062Z" fill="#334155"/>
<rect opacity="0.32" x="356.25" y="203.25" width="0.5" height="15.5" stroke="#1E293B" stroke-width="0.5"/>
<g clip-path="url(#clip1_102_1434)">
<g filter="url(#filter3_d_102_1434)">
<rect x="280" y="233" width="208" height="28" rx="4" fill="white" fill-opacity="0.72"/>
</g>
<path d="M291.057 251V242.273H294.006C294.69 242.273 295.25 242.396 295.685 242.643C296.122 242.888 296.446 243.219 296.656 243.636C296.866 244.054 296.972 244.52 296.972 245.034C296.972 245.548 296.866 246.016 296.656 246.436C296.449 246.857 296.128 247.192 295.693 247.442C295.259 247.689 294.702 247.812 294.023 247.812H291.909V246.875H293.989C294.457 246.875 294.834 246.794 295.118 246.632C295.402 246.47 295.608 246.251 295.736 245.976C295.866 245.697 295.932 245.384 295.932 245.034C295.932 244.685 295.866 244.372 295.736 244.097C295.608 243.821 295.401 243.605 295.114 243.449C294.827 243.29 294.446 243.21 293.972 243.21H292.114V251H291.057ZM300.464 251.153C300.049 251.153 299.673 251.075 299.335 250.919C298.996 250.76 298.728 250.531 298.529 250.233C298.33 249.932 298.231 249.568 298.231 249.142C298.231 248.767 298.305 248.463 298.452 248.23C298.6 247.994 298.798 247.81 299.045 247.676C299.292 247.543 299.565 247.443 299.863 247.378C300.164 247.31 300.467 247.256 300.771 247.216C301.168 247.165 301.491 247.126 301.738 247.101C301.988 247.072 302.17 247.026 302.283 246.96C302.4 246.895 302.458 246.781 302.458 246.619V246.585C302.458 246.165 302.343 245.838 302.113 245.605C301.886 245.372 301.54 245.256 301.077 245.256C300.597 245.256 300.221 245.361 299.948 245.571C299.675 245.781 299.484 246.006 299.373 246.244L298.418 245.903C298.589 245.506 298.816 245.196 299.1 244.974C299.387 244.75 299.7 244.594 300.038 244.506C300.379 244.415 300.714 244.369 301.043 244.369C301.254 244.369 301.495 244.395 301.768 244.446C302.043 244.494 302.309 244.595 302.565 244.749C302.823 244.902 303.038 245.134 303.208 245.443C303.379 245.753 303.464 246.168 303.464 246.688V251H302.458V250.114H302.407C302.339 250.256 302.225 250.408 302.066 250.57C301.907 250.732 301.695 250.869 301.431 250.983C301.167 251.097 300.844 251.153 300.464 251.153ZM300.617 250.25C301.015 250.25 301.35 250.172 301.623 250.016C301.898 249.859 302.106 249.658 302.245 249.411C302.387 249.163 302.458 248.903 302.458 248.631V247.71C302.415 247.761 302.322 247.808 302.177 247.851C302.035 247.891 301.87 247.926 301.683 247.957C301.498 247.986 301.317 248.011 301.141 248.034C300.968 248.054 300.827 248.071 300.719 248.085C300.458 248.119 300.214 248.175 299.987 248.251C299.762 248.325 299.58 248.437 299.441 248.588C299.305 248.736 299.237 248.937 299.237 249.193C299.237 249.543 299.366 249.807 299.624 249.986C299.886 250.162 300.217 250.25 300.617 250.25ZM309.936 245.92L309.032 246.176C308.975 246.026 308.892 245.879 308.781 245.737C308.673 245.592 308.525 245.473 308.338 245.379C308.15 245.286 307.91 245.239 307.618 245.239C307.217 245.239 306.883 245.331 306.616 245.516C306.352 245.697 306.22 245.929 306.22 246.21C306.22 246.46 306.311 246.658 306.493 246.803C306.674 246.947 306.958 247.068 307.345 247.165L308.316 247.403C308.902 247.545 309.338 247.763 309.625 248.055C309.912 248.345 310.055 248.719 310.055 249.176C310.055 249.551 309.947 249.886 309.731 250.182C309.518 250.477 309.22 250.71 308.836 250.881C308.453 251.051 308.007 251.136 307.498 251.136C306.831 251.136 306.278 250.991 305.841 250.702C305.403 250.412 305.126 249.989 305.01 249.432L305.964 249.193C306.055 249.545 306.227 249.81 306.48 249.986C306.735 250.162 307.069 250.25 307.481 250.25C307.95 250.25 308.322 250.151 308.598 249.952C308.876 249.75 309.015 249.509 309.015 249.227C309.015 249 308.936 248.81 308.777 248.656C308.618 248.5 308.373 248.384 308.044 248.307L306.953 248.051C306.353 247.909 305.913 247.689 305.632 247.391C305.353 247.089 305.214 246.713 305.214 246.261C305.214 245.892 305.318 245.565 305.525 245.281C305.735 244.997 306.021 244.774 306.382 244.612C306.745 244.45 307.157 244.369 307.618 244.369C308.265 244.369 308.774 244.511 309.143 244.795C309.515 245.08 309.779 245.455 309.936 245.92ZM316.205 245.92L315.302 246.176C315.245 246.026 315.161 245.879 315.05 245.737C314.942 245.592 314.795 245.473 314.607 245.379C314.42 245.286 314.18 245.239 313.887 245.239C313.487 245.239 313.153 245.331 312.886 245.516C312.621 245.697 312.489 245.929 312.489 246.21C312.489 246.46 312.58 246.658 312.762 246.803C312.944 246.947 313.228 247.068 313.614 247.165L314.586 247.403C315.171 247.545 315.607 247.763 315.894 248.055C316.181 248.345 316.325 248.719 316.325 249.176C316.325 249.551 316.217 249.886 316.001 250.182C315.788 250.477 315.489 250.71 315.106 250.881C314.722 251.051 314.276 251.136 313.768 251.136C313.1 251.136 312.548 250.991 312.11 250.702C311.673 250.412 311.396 249.989 311.279 249.432L312.234 249.193C312.325 249.545 312.496 249.81 312.749 249.986C313.005 250.162 313.339 250.25 313.751 250.25C314.219 250.25 314.592 250.151 314.867 249.952C315.146 249.75 315.285 249.509 315.285 249.227C315.285 249 315.205 248.81 315.046 248.656C314.887 248.5 314.643 248.384 314.313 248.307L313.222 248.051C312.623 247.909 312.183 247.689 311.901 247.391C311.623 247.089 311.484 246.713 311.484 246.261C311.484 245.892 311.587 245.565 311.795 245.281C312.005 244.997 312.29 244.774 312.651 244.612C313.015 244.45 313.427 244.369 313.887 244.369C314.535 244.369 315.043 244.511 315.413 244.795C315.785 245.08 316.049 245.455 316.205 245.92ZM319.321 251L317.327 244.455H318.384L319.799 249.466H319.867L321.265 244.455H322.338L323.719 249.449H323.787L325.202 244.455H326.259L324.265 251H323.276L321.844 245.972H321.742L320.31 251H319.321ZM330.025 251.136C329.434 251.136 328.915 250.996 328.469 250.714C328.026 250.433 327.68 250.04 327.43 249.534C327.183 249.028 327.059 248.437 327.059 247.761C327.059 247.08 327.183 246.484 327.43 245.976C327.68 245.467 328.026 245.072 328.469 244.791C328.915 244.51 329.434 244.369 330.025 244.369C330.616 244.369 331.133 244.51 331.576 244.791C332.022 245.072 332.369 245.467 332.616 245.976C332.866 246.484 332.991 247.08 332.991 247.761C332.991 248.437 332.866 249.028 332.616 249.534C332.369 250.04 332.022 250.433 331.576 250.714C331.133 250.996 330.616 251.136 330.025 251.136ZM330.025 250.233C330.474 250.233 330.843 250.118 331.133 249.888C331.423 249.658 331.637 249.355 331.776 248.98C331.915 248.605 331.985 248.199 331.985 247.761C331.985 247.324 331.915 246.916 331.776 246.538C331.637 246.161 331.423 245.855 331.133 245.622C330.843 245.389 330.474 245.273 330.025 245.273C329.576 245.273 329.207 245.389 328.917 245.622C328.627 245.855 328.413 246.161 328.273 246.538C328.134 246.916 328.065 247.324 328.065 247.761C328.065 248.199 328.134 248.605 328.273 248.98C328.413 249.355 328.627 249.658 328.917 249.888C329.207 250.118 329.576 250.233 330.025 250.233ZM334.526 251V244.455H335.498V245.443H335.566C335.685 245.119 335.901 244.857 336.213 244.655C336.526 244.453 336.878 244.352 337.27 244.352C337.344 244.352 337.436 244.354 337.547 244.357C337.658 244.359 337.742 244.364 337.799 244.369V245.392C337.765 245.384 337.686 245.371 337.564 245.354C337.445 245.334 337.319 245.324 337.185 245.324C336.867 245.324 336.583 245.391 336.333 245.524C336.086 245.655 335.89 245.837 335.745 246.07C335.603 246.3 335.532 246.562 335.532 246.858V251H334.526ZM341.263 251.136C340.718 251.136 340.236 250.999 339.819 250.723C339.401 250.445 339.074 250.053 338.838 249.547C338.603 249.038 338.485 248.438 338.485 247.744C338.485 247.057 338.603 246.46 338.838 245.955C339.074 245.449 339.402 245.058 339.823 244.783C340.243 244.507 340.729 244.369 341.28 244.369C341.706 244.369 342.043 244.44 342.29 244.582C342.54 244.722 342.73 244.881 342.861 245.06C342.995 245.236 343.098 245.381 343.172 245.494H343.257V242.273H344.263V251H343.292V249.994H343.172C343.098 250.114 342.993 250.264 342.857 250.446C342.721 250.625 342.526 250.786 342.273 250.928C342.02 251.067 341.684 251.136 341.263 251.136ZM341.4 250.233C341.803 250.233 342.144 250.128 342.422 249.918C342.701 249.705 342.912 249.411 343.057 249.036C343.202 248.658 343.275 248.222 343.275 247.727C343.275 247.239 343.203 246.811 343.061 246.445C342.919 246.075 342.709 245.788 342.431 245.584C342.152 245.376 341.809 245.273 341.4 245.273C340.973 245.273 340.618 245.382 340.334 245.601C340.053 245.817 339.841 246.111 339.699 246.483C339.56 246.852 339.49 247.267 339.49 247.727C339.49 248.193 339.561 248.616 339.703 248.997C339.848 249.375 340.061 249.676 340.343 249.901C340.627 250.122 340.979 250.233 341.4 250.233Z" fill="#94A3B8"/>
</g>
<g clip-path="url(#clip2_102_1434)">
<g filter="url(#filter4_d_102_1434)">
<rect x="280" y="273" width="208" height="28" rx="4" fill="#1E293B"/>
</g>
<path d="M368.879 285.111H367.55C367.499 284.827 367.403 284.577 367.264 284.361C367.125 284.145 366.955 283.962 366.753 283.811C366.551 283.661 366.325 283.547 366.075 283.47C365.828 283.393 365.565 283.355 365.287 283.355C364.784 283.355 364.334 283.482 363.936 283.734C363.541 283.987 363.229 284.358 362.999 284.847C362.771 285.335 362.658 285.932 362.658 286.636C362.658 287.347 362.771 287.946 362.999 288.435C363.229 288.923 363.543 289.293 363.94 289.543C364.338 289.793 364.786 289.918 365.283 289.918C365.558 289.918 365.82 289.881 366.067 289.807C366.317 289.73 366.543 289.618 366.744 289.47C366.946 289.322 367.116 289.142 367.256 288.929C367.398 288.713 367.496 288.466 367.55 288.188L368.879 288.192C368.808 288.621 368.67 289.016 368.466 289.376C368.264 289.734 368.004 290.044 367.686 290.305C367.371 290.564 367.01 290.764 366.604 290.906C366.197 291.048 365.754 291.119 365.274 291.119C364.518 291.119 363.845 290.94 363.254 290.582C362.663 290.222 362.197 289.706 361.857 289.036C361.518 288.365 361.349 287.565 361.349 286.636C361.349 285.705 361.52 284.905 361.861 284.237C362.202 283.567 362.668 283.053 363.259 282.695C363.849 282.334 364.521 282.153 365.274 282.153C365.737 282.153 366.169 282.22 366.57 282.354C366.973 282.484 367.335 282.678 367.656 282.933C367.977 283.186 368.243 283.496 368.453 283.862C368.663 284.226 368.805 284.642 368.879 285.111ZM373.11 291.132C372.496 291.132 371.961 290.991 371.503 290.71C371.046 290.429 370.691 290.036 370.438 289.53C370.185 289.024 370.059 288.433 370.059 287.757C370.059 287.078 370.185 286.484 370.438 285.976C370.691 285.467 371.046 285.072 371.503 284.791C371.961 284.51 372.496 284.369 373.11 284.369C373.723 284.369 374.259 284.51 374.716 284.791C375.174 285.072 375.529 285.467 375.782 285.976C376.034 286.484 376.161 287.078 376.161 287.757C376.161 288.433 376.034 289.024 375.782 289.53C375.529 290.036 375.174 290.429 374.716 290.71C374.259 290.991 373.723 291.132 373.11 291.132ZM373.114 290.062C373.512 290.062 373.841 289.957 374.103 289.747C374.364 289.537 374.557 289.257 374.682 288.908C374.81 288.558 374.874 288.173 374.874 287.753C374.874 287.335 374.81 286.952 374.682 286.602C374.557 286.25 374.364 285.967 374.103 285.754C373.841 285.541 373.512 285.435 373.114 285.435C372.713 285.435 372.381 285.541 372.117 285.754C371.855 285.967 371.661 286.25 371.533 286.602C371.408 286.952 371.346 287.335 371.346 287.753C371.346 288.173 371.408 288.558 371.533 288.908C371.661 289.257 371.855 289.537 372.117 289.747C372.381 289.957 372.713 290.062 373.114 290.062ZM378.857 287.114V291H377.583V284.455H378.806V285.52H378.887C379.038 285.173 379.273 284.895 379.594 284.685C379.918 284.474 380.326 284.369 380.817 284.369C381.263 284.369 381.654 284.463 381.989 284.651C382.325 284.835 382.585 285.111 382.769 285.477C382.954 285.844 383.046 286.297 383.046 286.837V291H381.772V286.99C381.772 286.516 381.648 286.145 381.401 285.878C381.154 285.608 380.815 285.473 380.383 285.473C380.087 285.473 379.825 285.537 379.594 285.665C379.367 285.793 379.187 285.98 379.053 286.227C378.923 286.472 378.857 286.767 378.857 287.114ZM387.81 284.455V285.477H384.235V284.455H387.81ZM385.194 282.886H386.468V289.078C386.468 289.325 386.505 289.511 386.579 289.636C386.653 289.759 386.748 289.842 386.864 289.888C386.984 289.93 387.113 289.952 387.252 289.952C387.354 289.952 387.444 289.945 387.521 289.93C387.597 289.916 387.657 289.905 387.7 289.896L387.93 290.949C387.856 290.977 387.751 291.006 387.614 291.034C387.478 291.065 387.308 291.082 387.103 291.085C386.768 291.091 386.455 291.031 386.165 290.906C385.876 290.781 385.641 290.588 385.462 290.327C385.283 290.065 385.194 289.737 385.194 289.342V282.886ZM389.22 291V284.455H390.494V291H389.22ZM389.863 283.445C389.642 283.445 389.451 283.371 389.292 283.223C389.136 283.072 389.058 282.893 389.058 282.686C389.058 282.476 389.136 282.297 389.292 282.149C389.451 281.999 389.642 281.923 389.863 281.923C390.085 281.923 390.274 281.999 390.43 282.149C390.589 282.297 390.669 282.476 390.669 282.686C390.669 282.893 390.589 283.072 390.43 283.223C390.274 283.371 390.085 283.445 389.863 283.445ZM393.482 287.114V291H392.208V284.455H393.431V285.52H393.512C393.663 285.173 393.898 284.895 394.219 284.685C394.543 284.474 394.951 284.369 395.442 284.369C395.888 284.369 396.279 284.463 396.614 284.651C396.95 284.835 397.21 285.111 397.394 285.477C397.579 285.844 397.671 286.297 397.671 286.837V291H396.397V286.99C396.397 286.516 396.273 286.145 396.026 285.878C395.779 285.608 395.44 285.473 395.008 285.473C394.712 285.473 394.45 285.537 394.219 285.665C393.992 285.793 393.812 285.98 393.678 286.227C393.548 286.472 393.482 286.767 393.482 287.114ZM403.526 288.286V284.455H404.805V291H403.552V289.866H403.484C403.333 290.216 403.092 290.507 402.759 290.74C402.43 290.97 402.019 291.085 401.528 291.085C401.107 291.085 400.735 290.993 400.411 290.808C400.09 290.621 399.837 290.344 399.653 289.977C399.471 289.611 399.38 289.158 399.38 288.618V284.455H400.654V288.464C400.654 288.911 400.778 289.266 401.025 289.53C401.272 289.794 401.593 289.926 401.988 289.926C402.227 289.926 402.464 289.866 402.7 289.747C402.938 289.628 403.136 289.447 403.292 289.206C403.451 288.964 403.529 288.658 403.526 288.286ZM409.338 291.132C408.693 291.132 408.137 290.994 407.672 290.719C407.208 290.44 406.85 290.05 406.598 289.547C406.348 289.041 406.223 288.449 406.223 287.77C406.223 287.099 406.348 286.509 406.598 285.997C406.85 285.486 407.203 285.087 407.654 284.8C408.109 284.513 408.64 284.369 409.248 284.369C409.618 284.369 409.975 284.43 410.322 284.553C410.669 284.675 410.98 284.866 411.255 285.128C411.531 285.389 411.748 285.729 411.907 286.146C412.066 286.561 412.146 287.065 412.146 287.659V288.111H406.943V287.156H410.897C410.897 286.821 410.829 286.524 410.693 286.266C410.556 286.004 410.365 285.798 410.118 285.648C409.873 285.497 409.586 285.422 409.257 285.422C408.899 285.422 408.586 285.51 408.319 285.686C408.055 285.859 407.85 286.087 407.706 286.368C407.564 286.646 407.493 286.949 407.493 287.276V288.021C407.493 288.459 407.569 288.831 407.723 289.138C407.879 289.445 408.096 289.679 408.375 289.841C408.653 290 408.978 290.08 409.35 290.08C409.592 290.08 409.812 290.045 410.011 289.977C410.21 289.906 410.382 289.801 410.527 289.662C410.672 289.523 410.782 289.351 410.859 289.146L412.065 289.364C411.968 289.719 411.795 290.03 411.545 290.297C411.298 290.561 410.987 290.767 410.612 290.915C410.24 291.06 409.815 291.132 409.338 291.132Z" fill="#CBD5E1"/>
<path d="M422.173 291.158L421.406 290.399L424.069 287.736H417.379V286.628H424.069L421.406 283.969L422.173 283.206L426.149 287.182L422.173 291.158Z" fill="#64748B"/>
</g>
<rect x="284" y="322" width="86" height="1" fill="#482E75" fill-opacity="0.08"/>
<rect x="398" y="322" width="86" height="1" fill="#482E75" fill-opacity="0.08"/>
<path d="M306.294 352H305.186L308.39 343.273H309.481L312.686 352H311.578L308.97 344.653H308.902L306.294 352ZM306.703 348.591H311.169V349.528H306.703V348.591ZM314.914 343.273V352H313.909V343.273H314.914ZM316.756 352V345.455H317.728V346.443H317.796C317.915 346.119 318.131 345.857 318.444 345.655C318.756 345.453 319.109 345.352 319.501 345.352C319.575 345.352 319.667 345.354 319.778 345.357C319.888 345.359 319.972 345.364 320.029 345.369V346.392C319.995 346.384 319.917 346.371 319.795 346.354C319.675 346.334 319.549 346.324 319.415 346.324C319.097 346.324 318.813 346.391 318.563 346.524C318.316 346.655 318.12 346.837 317.975 347.07C317.833 347.3 317.762 347.562 317.762 347.858V352H316.756ZM323.766 352.136C323.136 352.136 322.592 351.997 322.134 351.719C321.68 351.438 321.329 351.045 321.082 350.543C320.837 350.037 320.715 349.449 320.715 348.778C320.715 348.108 320.837 347.517 321.082 347.006C321.329 346.491 321.673 346.091 322.113 345.804C322.556 345.514 323.073 345.369 323.664 345.369C324.005 345.369 324.342 345.426 324.674 345.54C325.006 345.653 325.309 345.838 325.582 346.094C325.854 346.347 326.072 346.682 326.234 347.099C326.396 347.517 326.477 348.031 326.477 348.642V349.068H321.431V348.199H325.454C325.454 347.83 325.38 347.5 325.232 347.21C325.087 346.92 324.88 346.692 324.61 346.524C324.343 346.357 324.028 346.273 323.664 346.273C323.263 346.273 322.917 346.372 322.624 346.571C322.335 346.767 322.112 347.023 321.955 347.338C321.799 347.653 321.721 347.991 321.721 348.352V348.932C321.721 349.426 321.806 349.845 321.977 350.189C322.15 350.53 322.39 350.79 322.697 350.969C323.004 351.145 323.36 351.233 323.766 351.233C324.031 351.233 324.269 351.196 324.482 351.122C324.698 351.045 324.884 350.932 325.04 350.781C325.197 350.628 325.317 350.437 325.403 350.21L326.374 350.483C326.272 350.812 326.1 351.102 325.859 351.352C325.617 351.599 325.319 351.793 324.964 351.932C324.609 352.068 324.21 352.136 323.766 352.136ZM329.933 352.153C329.518 352.153 329.141 352.075 328.803 351.919C328.465 351.76 328.197 351.531 327.998 351.233C327.799 350.932 327.7 350.568 327.7 350.142C327.7 349.767 327.773 349.463 327.921 349.23C328.069 348.994 328.266 348.81 328.513 348.676C328.761 348.543 329.033 348.443 329.332 348.378C329.633 348.31 329.935 348.256 330.239 348.216C330.637 348.165 330.96 348.126 331.207 348.101C331.457 348.072 331.638 348.026 331.752 347.96C331.869 347.895 331.927 347.781 331.927 347.619V347.585C331.927 347.165 331.812 346.838 331.582 346.605C331.354 346.372 331.009 346.256 330.546 346.256C330.066 346.256 329.69 346.361 329.417 346.571C329.144 346.781 328.952 347.006 328.842 347.244L327.887 346.903C328.058 346.506 328.285 346.196 328.569 345.974C328.856 345.75 329.168 345.594 329.506 345.506C329.847 345.415 330.183 345.369 330.512 345.369C330.722 345.369 330.964 345.395 331.237 345.446C331.512 345.494 331.778 345.595 332.033 345.749C332.292 345.902 332.506 346.134 332.677 346.443C332.847 346.753 332.933 347.168 332.933 347.688V352H331.927V351.114H331.876C331.808 351.256 331.694 351.408 331.535 351.57C331.376 351.732 331.164 351.869 330.9 351.983C330.636 352.097 330.313 352.153 329.933 352.153ZM330.086 351.25C330.484 351.25 330.819 351.172 331.092 351.016C331.367 350.859 331.575 350.658 331.714 350.411C331.856 350.163 331.927 349.903 331.927 349.631V348.71C331.884 348.761 331.79 348.808 331.646 348.851C331.504 348.891 331.339 348.926 331.151 348.957C330.967 348.986 330.786 349.011 330.61 349.034C330.437 349.054 330.296 349.071 330.188 349.085C329.927 349.119 329.683 349.175 329.455 349.251C329.231 349.325 329.049 349.437 328.91 349.588C328.773 349.736 328.705 349.937 328.705 350.193C328.705 350.543 328.835 350.807 329.093 350.986C329.354 351.162 329.685 351.25 330.086 351.25ZM337.24 352.136C336.694 352.136 336.213 351.999 335.795 351.723C335.377 351.445 335.051 351.053 334.815 350.547C334.579 350.038 334.461 349.438 334.461 348.744C334.461 348.057 334.579 347.46 334.815 346.955C335.051 346.449 335.379 346.058 335.799 345.783C336.22 345.507 336.706 345.369 337.257 345.369C337.683 345.369 338.02 345.44 338.267 345.582C338.517 345.722 338.707 345.881 338.838 346.06C338.971 346.236 339.075 346.381 339.149 346.494H339.234V343.273H340.24V352H339.268V350.994H339.149C339.075 351.114 338.97 351.264 338.833 351.446C338.697 351.625 338.502 351.786 338.25 351.928C337.997 352.067 337.66 352.136 337.24 352.136ZM337.376 351.233C337.779 351.233 338.12 351.128 338.399 350.918C338.677 350.705 338.889 350.411 339.034 350.036C339.179 349.658 339.251 349.222 339.251 348.727C339.251 348.239 339.18 347.811 339.038 347.445C338.896 347.075 338.686 346.788 338.407 346.584C338.129 346.376 337.785 346.273 337.376 346.273C336.95 346.273 336.595 346.382 336.311 346.601C336.029 346.817 335.818 347.111 335.676 347.483C335.537 347.852 335.467 348.267 335.467 348.727C335.467 349.193 335.538 349.616 335.68 349.997C335.825 350.375 336.038 350.676 336.319 350.901C336.603 351.122 336.956 351.233 337.376 351.233ZM342.869 354.455C342.699 354.455 342.547 354.44 342.413 354.412C342.279 354.386 342.187 354.361 342.136 354.335L342.392 353.449C342.636 353.511 342.852 353.534 343.039 353.517C343.227 353.5 343.393 353.416 343.538 353.266C343.686 353.118 343.821 352.878 343.943 352.545L344.13 352.034L341.71 345.455H342.801L344.608 350.67H344.676L346.483 345.455H347.574L344.795 352.955C344.67 353.293 344.515 353.572 344.331 353.794C344.146 354.018 343.931 354.185 343.687 354.293C343.446 354.401 343.173 354.455 342.869 354.455ZM354.202 352.153C353.787 352.153 353.411 352.075 353.073 351.919C352.735 351.76 352.466 351.531 352.267 351.233C352.069 350.932 351.969 350.568 351.969 350.142C351.969 349.767 352.043 349.463 352.191 349.23C352.338 348.994 352.536 348.81 352.783 348.676C353.03 348.543 353.303 348.443 353.601 348.378C353.902 348.31 354.205 348.256 354.509 348.216C354.907 348.165 355.229 348.126 355.476 348.101C355.726 348.072 355.908 348.026 356.022 347.96C356.138 347.895 356.196 347.781 356.196 347.619V347.585C356.196 347.165 356.081 346.838 355.851 346.605C355.624 346.372 355.279 346.256 354.816 346.256C354.336 346.256 353.959 346.361 353.686 346.571C353.414 346.781 353.222 347.006 353.111 347.244L352.157 346.903C352.327 346.506 352.554 346.196 352.838 345.974C353.125 345.75 353.438 345.594 353.776 345.506C354.117 345.415 354.452 345.369 354.782 345.369C354.992 345.369 355.233 345.395 355.506 345.446C355.782 345.494 356.047 345.595 356.303 345.749C356.561 345.902 356.776 346.134 356.946 346.443C357.117 346.753 357.202 347.168 357.202 347.688V352H356.196V351.114H356.145C356.077 351.256 355.963 351.408 355.804 351.57C355.645 351.732 355.434 351.869 355.169 351.983C354.905 352.097 354.583 352.153 354.202 352.153ZM354.355 351.25C354.753 351.25 355.088 351.172 355.361 351.016C355.637 350.859 355.844 350.658 355.983 350.411C356.125 350.163 356.196 349.903 356.196 349.631V348.71C356.154 348.761 356.06 348.808 355.915 348.851C355.773 348.891 355.608 348.926 355.421 348.957C355.236 348.986 355.056 349.011 354.88 349.034C354.706 349.054 354.566 349.071 354.458 349.085C354.196 349.119 353.952 349.175 353.725 349.251C353.5 349.325 353.319 349.437 353.179 349.588C353.043 349.736 352.975 349.937 352.975 350.193C352.975 350.543 353.104 350.807 353.363 350.986C353.624 351.162 353.955 351.25 354.355 351.25ZM362.413 352V345.455H363.384V346.477H363.469C363.606 346.128 363.826 345.857 364.13 345.663C364.434 345.467 364.799 345.369 365.225 345.369C365.657 345.369 366.016 345.467 366.303 345.663C366.593 345.857 366.819 346.128 366.981 346.477H367.049C367.217 346.139 367.468 345.871 367.803 345.672C368.138 345.47 368.54 345.369 369.009 345.369C369.594 345.369 370.073 345.553 370.445 345.919C370.817 346.283 371.004 346.849 371.004 347.619V352H369.998V347.619C369.998 347.136 369.866 346.791 369.602 346.584C369.337 346.376 369.026 346.273 368.668 346.273C368.208 346.273 367.852 346.412 367.599 346.69C367.346 346.966 367.219 347.315 367.219 347.739V352H366.197V347.517C366.197 347.145 366.076 346.845 365.835 346.618C365.593 346.388 365.282 346.273 364.901 346.273C364.64 346.273 364.396 346.342 364.168 346.482C363.944 346.621 363.762 346.814 363.623 347.061C363.487 347.305 363.418 347.588 363.418 347.909V352H362.413ZM375.587 352.136C374.956 352.136 374.412 351.997 373.955 351.719C373.5 351.438 373.149 351.045 372.902 350.543C372.658 350.037 372.536 349.449 372.536 348.778C372.536 348.108 372.658 347.517 372.902 347.006C373.149 346.491 373.493 346.091 373.933 345.804C374.376 345.514 374.893 345.369 375.484 345.369C375.825 345.369 376.162 345.426 376.494 345.54C376.827 345.653 377.129 345.838 377.402 346.094C377.675 346.347 377.892 346.682 378.054 347.099C378.216 347.517 378.297 348.031 378.297 348.642V349.068H373.251V348.199H377.274C377.274 347.83 377.2 347.5 377.053 347.21C376.908 346.92 376.7 346.692 376.43 346.524C376.163 346.357 375.848 346.273 375.484 346.273C375.084 346.273 374.737 346.372 374.445 346.571C374.155 346.767 373.932 347.023 373.776 347.338C373.619 347.653 373.541 347.991 373.541 348.352V348.932C373.541 349.426 373.626 349.845 373.797 350.189C373.97 350.53 374.21 350.79 374.517 350.969C374.824 351.145 375.18 351.233 375.587 351.233C375.851 351.233 376.089 351.196 376.303 351.122C376.518 351.045 376.705 350.932 376.861 350.781C377.017 350.628 377.138 350.437 377.223 350.21L378.195 350.483C378.092 350.812 377.92 351.102 377.679 351.352C377.438 351.599 377.139 351.793 376.784 351.932C376.429 352.068 376.03 352.136 375.587 352.136ZM379.827 352V345.455H380.798V346.477H380.884C381.02 346.128 381.24 345.857 381.544 345.663C381.848 345.467 382.213 345.369 382.639 345.369C383.071 345.369 383.43 345.467 383.717 345.663C384.007 345.857 384.233 346.128 384.395 346.477H384.463C384.631 346.139 384.882 345.871 385.217 345.672C385.553 345.47 385.955 345.369 386.423 345.369C387.009 345.369 387.487 345.553 387.859 345.919C388.232 346.283 388.418 346.849 388.418 347.619V352H387.412V347.619C387.412 347.136 387.28 346.791 387.016 346.584C386.751 346.376 386.44 346.273 386.082 346.273C385.622 346.273 385.266 346.412 385.013 346.69C384.76 346.966 384.634 347.315 384.634 347.739V352H383.611V347.517C383.611 347.145 383.49 346.845 383.249 346.618C383.007 346.388 382.696 346.273 382.315 346.273C382.054 346.273 381.81 346.342 381.582 346.482C381.358 346.621 381.176 346.814 381.037 347.061C380.901 347.305 380.832 347.588 380.832 347.909V352H379.827ZM390.393 352V343.273H391.398V346.494H391.484C391.558 346.381 391.66 346.236 391.79 346.06C391.924 345.881 392.114 345.722 392.362 345.582C392.612 345.44 392.95 345.369 393.376 345.369C393.927 345.369 394.413 345.507 394.833 345.783C395.254 346.058 395.582 346.449 395.817 346.955C396.053 347.46 396.171 348.057 396.171 348.744C396.171 349.438 396.053 350.038 395.817 350.547C395.582 351.053 395.255 351.445 394.837 351.723C394.42 351.999 393.938 352.136 393.393 352.136C392.972 352.136 392.636 352.067 392.383 351.928C392.13 351.786 391.935 351.625 391.799 351.446C391.663 351.264 391.558 351.114 391.484 350.994H391.364V352H390.393ZM391.381 348.727C391.381 349.222 391.454 349.658 391.599 350.036C391.744 350.411 391.955 350.705 392.234 350.918C392.512 351.128 392.853 351.233 393.256 351.233C393.677 351.233 394.028 351.122 394.309 350.901C394.593 350.676 394.806 350.375 394.948 349.997C395.093 349.616 395.165 349.193 395.165 348.727C395.165 348.267 395.094 347.852 394.952 347.483C394.813 347.111 394.602 346.817 394.317 346.601C394.036 346.382 393.683 346.273 393.256 346.273C392.847 346.273 392.504 346.376 392.225 346.584C391.947 346.788 391.737 347.075 391.594 347.445C391.452 347.811 391.381 348.239 391.381 348.727ZM400.454 352.136C399.823 352.136 399.279 351.997 398.822 351.719C398.367 351.438 398.016 351.045 397.769 350.543C397.525 350.037 397.403 349.449 397.403 348.778C397.403 348.108 397.525 347.517 397.769 347.006C398.016 346.491 398.36 346.091 398.8 345.804C399.244 345.514 399.761 345.369 400.352 345.369C400.692 345.369 401.029 345.426 401.362 345.54C401.694 345.653 401.996 345.838 402.269 346.094C402.542 346.347 402.759 346.682 402.921 347.099C403.083 347.517 403.164 348.031 403.164 348.642V349.068H398.119V348.199H402.141C402.141 347.83 402.067 347.5 401.92 347.21C401.775 346.92 401.567 346.692 401.298 346.524C401.031 346.357 400.715 346.273 400.352 346.273C399.951 346.273 399.604 346.372 399.312 346.571C399.022 346.767 398.799 347.023 398.643 347.338C398.487 347.653 398.408 347.991 398.408 348.352V348.932C398.408 349.426 398.494 349.845 398.664 350.189C398.837 350.53 399.077 350.79 399.384 350.969C399.691 351.145 400.048 351.233 400.454 351.233C400.718 351.233 400.957 351.196 401.17 351.122C401.386 351.045 401.572 350.932 401.728 350.781C401.884 350.628 402.005 350.437 402.09 350.21L403.062 350.483C402.96 350.812 402.788 351.102 402.546 351.352C402.305 351.599 402.006 351.793 401.651 351.932C401.296 352.068 400.897 352.136 400.454 352.136ZM404.694 352V345.455H405.665V346.443H405.734C405.853 346.119 406.069 345.857 406.381 345.655C406.694 345.453 407.046 345.352 407.438 345.352C407.512 345.352 407.604 345.354 407.715 345.357C407.826 345.359 407.91 345.364 407.967 345.369V346.392C407.933 346.384 407.854 346.371 407.732 346.354C407.613 346.334 407.487 346.324 407.353 346.324C407.035 346.324 406.751 346.391 406.501 346.524C406.254 346.655 406.058 346.837 405.913 347.07C405.771 347.3 405.7 347.562 405.7 347.858V352H404.694ZM410.471 349.545V349.494C410.477 348.952 410.534 348.52 410.642 348.199C410.75 347.878 410.903 347.618 411.102 347.419C411.301 347.22 411.539 347.037 411.818 346.869C411.985 346.767 412.136 346.646 412.27 346.507C412.403 346.365 412.508 346.202 412.585 346.017C412.664 345.832 412.704 345.628 412.704 345.403C412.704 345.125 412.639 344.884 412.508 344.679C412.377 344.474 412.203 344.317 411.984 344.206C411.765 344.095 411.522 344.04 411.255 344.04C411.022 344.04 410.798 344.088 410.582 344.185C410.366 344.281 410.186 344.433 410.041 344.641C409.896 344.848 409.812 345.119 409.789 345.455H408.716C408.738 344.972 408.863 344.558 409.091 344.214C409.321 343.871 409.623 343.608 409.998 343.426C410.376 343.244 410.795 343.153 411.255 343.153C411.755 343.153 412.19 343.253 412.559 343.452C412.931 343.651 413.218 343.923 413.42 344.27C413.625 344.616 413.727 345.011 413.727 345.455C413.727 345.767 413.679 346.05 413.582 346.303C413.488 346.555 413.352 346.781 413.173 346.98C412.997 347.179 412.784 347.355 412.534 347.509C412.284 347.665 412.083 347.83 411.933 348.003C411.782 348.173 411.673 348.376 411.605 348.612C411.537 348.848 411.5 349.142 411.494 349.494V349.545H410.471ZM411.017 352.068C410.806 352.068 410.626 351.993 410.475 351.842C410.325 351.692 410.25 351.511 410.25 351.301C410.25 351.091 410.325 350.911 410.475 350.76C410.626 350.609 410.806 350.534 411.017 350.534C411.227 350.534 411.407 350.609 411.558 350.76C411.708 350.911 411.784 351.091 411.784 351.301C411.784 351.44 411.748 351.568 411.677 351.685C411.609 351.801 411.517 351.895 411.4 351.966C411.287 352.034 411.159 352.068 411.017 352.068Z" fill="#94A3B8"/>
<path d="M423.215 345.565C423.169 345.162 422.982 344.849 422.652 344.628C422.323 344.403 421.908 344.291 421.408 344.291C421.05 344.291 420.74 344.348 420.479 344.462C420.218 344.572 420.015 344.726 419.87 344.922C419.728 345.115 419.657 345.335 419.657 345.582C419.657 345.79 419.705 345.969 419.801 346.119C419.901 346.27 420.03 346.396 420.189 346.499C420.351 346.598 420.525 346.682 420.709 346.75C420.894 346.815 421.071 346.869 421.242 346.912L422.094 347.134C422.373 347.202 422.658 347.294 422.951 347.411C423.243 347.527 423.515 347.68 423.765 347.871C424.015 348.061 424.216 348.297 424.37 348.578C424.526 348.859 424.604 349.196 424.604 349.588C424.604 350.082 424.476 350.521 424.221 350.905C423.968 351.288 423.6 351.591 423.117 351.812C422.637 352.034 422.056 352.145 421.374 352.145C420.721 352.145 420.155 352.041 419.678 351.834C419.201 351.626 418.827 351.332 418.557 350.952C418.287 350.568 418.138 350.114 418.11 349.588H419.431C419.456 349.903 419.559 350.166 419.738 350.376C419.919 350.584 420.151 350.739 420.432 350.841C420.716 350.94 421.027 350.99 421.365 350.99C421.738 350.99 422.069 350.932 422.358 350.815C422.651 350.696 422.881 350.531 423.049 350.321C423.216 350.108 423.3 349.859 423.3 349.575C423.3 349.317 423.226 349.105 423.078 348.94C422.934 348.776 422.736 348.639 422.486 348.531C422.239 348.423 421.959 348.328 421.647 348.246L420.615 347.964C419.917 347.774 419.363 347.494 418.953 347.125C418.547 346.756 418.344 346.267 418.344 345.659C418.344 345.156 418.48 344.717 418.753 344.342C419.026 343.967 419.395 343.676 419.861 343.469C420.327 343.259 420.853 343.153 421.438 343.153C422.029 343.153 422.55 343.257 423.002 343.464C423.456 343.672 423.814 343.957 424.076 344.321C424.337 344.682 424.473 345.097 424.485 345.565H423.215ZM426.075 352V345.455H427.349V352H426.075ZM426.719 344.445C426.497 344.445 426.307 344.371 426.148 344.223C425.991 344.072 425.913 343.893 425.913 343.686C425.913 343.476 425.991 343.297 426.148 343.149C426.307 342.999 426.497 342.923 426.719 342.923C426.94 342.923 427.129 342.999 427.286 343.149C427.445 343.297 427.524 343.476 427.524 343.686C427.524 343.893 427.445 344.072 427.286 344.223C427.129 344.371 426.94 344.445 426.719 344.445ZM431.808 354.591C431.288 354.591 430.841 354.523 430.466 354.386C430.093 354.25 429.789 354.07 429.554 353.845C429.318 353.621 429.142 353.375 429.025 353.108L430.12 352.656C430.197 352.781 430.299 352.913 430.427 353.053C430.558 353.195 430.734 353.315 430.956 353.415C431.18 353.514 431.468 353.564 431.821 353.564C432.304 353.564 432.703 353.446 433.018 353.21C433.333 352.977 433.491 352.605 433.491 352.094V350.807H433.41C433.333 350.946 433.223 351.101 433.078 351.271C432.936 351.442 432.74 351.589 432.49 351.714C432.24 351.839 431.914 351.902 431.514 351.902C430.997 351.902 430.531 351.781 430.116 351.54C429.704 351.295 429.377 350.936 429.136 350.462C428.897 349.984 428.778 349.398 428.778 348.702C428.778 348.006 428.896 347.409 429.132 346.912C429.37 346.415 429.697 346.034 430.112 345.77C430.527 345.503 430.997 345.369 431.522 345.369C431.929 345.369 432.257 345.438 432.507 345.574C432.757 345.707 432.951 345.864 433.091 346.043C433.233 346.222 433.342 346.379 433.419 346.516H433.512V345.455H434.761V352.145C434.761 352.707 434.63 353.169 434.369 353.53C434.108 353.891 433.754 354.158 433.308 354.331C432.865 354.504 432.365 354.591 431.808 354.591ZM431.795 350.845C432.162 350.845 432.471 350.76 432.724 350.589C432.98 350.416 433.173 350.169 433.304 349.848C433.437 349.524 433.504 349.136 433.504 348.685C433.504 348.244 433.439 347.857 433.308 347.521C433.177 347.186 432.985 346.925 432.733 346.737C432.48 346.547 432.167 346.452 431.795 346.452C431.412 346.452 431.092 346.551 430.836 346.75C430.581 346.946 430.387 347.213 430.257 347.551C430.129 347.889 430.065 348.267 430.065 348.685C430.065 349.114 430.13 349.49 430.261 349.814C430.392 350.138 430.585 350.391 430.841 350.572C431.099 350.754 431.417 350.845 431.795 350.845ZM437.744 348.114V352H436.47V345.455H437.693V346.52H437.774C437.924 346.173 438.16 345.895 438.481 345.685C438.805 345.474 439.213 345.369 439.704 345.369C440.15 345.369 440.541 345.463 440.876 345.651C441.211 345.835 441.471 346.111 441.656 346.477C441.841 346.844 441.933 347.297 441.933 347.837V352H440.659V347.99C440.659 347.516 440.535 347.145 440.288 346.878C440.041 346.608 439.701 346.473 439.27 346.473C438.974 346.473 438.711 346.537 438.481 346.665C438.254 346.793 438.074 346.98 437.94 347.227C437.809 347.472 437.744 347.767 437.744 348.114ZM446.817 352V345.455H448.092V352H446.817ZM447.461 344.445C447.239 344.445 447.049 344.371 446.89 344.223C446.734 344.072 446.656 343.893 446.656 343.686C446.656 343.476 446.734 343.297 446.89 343.149C447.049 342.999 447.239 342.923 447.461 342.923C447.683 342.923 447.871 342.999 448.028 343.149C448.187 343.297 448.266 343.476 448.266 343.686C448.266 343.893 448.187 344.072 448.028 344.223C447.871 344.371 447.683 344.445 447.461 344.445ZM451.08 348.114V352H449.806V345.455H451.029V346.52H451.11C451.26 346.173 451.496 345.895 451.817 345.685C452.141 345.474 452.549 345.369 453.04 345.369C453.486 345.369 453.877 345.463 454.212 345.651C454.547 345.835 454.807 346.111 454.992 346.477C455.176 346.844 455.269 347.297 455.269 347.837V352H453.995V347.99C453.995 347.516 453.871 347.145 453.624 346.878C453.377 346.608 453.037 346.473 452.605 346.473C452.31 346.473 452.047 346.537 451.817 346.665C451.59 346.793 451.409 346.98 451.276 347.227C451.145 347.472 451.08 347.767 451.08 348.114Z" fill="#A855F7"/>
</g>
<path d="M335.242 174L332.368 163.818H334.352L336.186 171.3H336.281L338.24 163.818H340.044L342.008 171.305H342.098L343.932 163.818H345.916L343.042 174H341.223L339.184 166.856H339.105L337.061 174H335.242ZM349.717 174.149C348.951 174.149 348.29 173.99 347.733 173.672C347.179 173.35 346.753 172.896 346.455 172.31C346.157 171.72 346.008 171.025 346.008 170.227C346.008 169.441 346.157 168.752 346.455 168.158C346.757 167.562 347.178 167.098 347.718 166.766C348.258 166.432 348.893 166.264 349.622 166.264C350.093 166.264 350.537 166.34 350.954 166.493C351.375 166.642 351.747 166.874 352.068 167.189C352.393 167.504 352.648 167.905 352.834 168.392C353.019 168.876 353.112 169.453 353.112 170.122V170.674H346.853V169.461H351.387C351.384 169.116 351.309 168.81 351.163 168.541C351.017 168.269 350.814 168.056 350.552 167.9C350.293 167.744 349.992 167.666 349.647 167.666C349.279 167.666 348.956 167.756 348.677 167.935C348.399 168.11 348.182 168.342 348.026 168.631C347.874 168.916 347.796 169.229 347.793 169.57V170.629C347.793 171.073 347.874 171.455 348.036 171.773C348.199 172.088 348.426 172.33 348.717 172.499C349.009 172.664 349.35 172.747 349.741 172.747C350.003 172.747 350.24 172.711 350.452 172.638C350.664 172.562 350.848 172.451 351.004 172.305C351.16 172.159 351.278 171.978 351.357 171.763L353.038 171.952C352.931 172.396 352.729 172.784 352.431 173.115C352.136 173.443 351.758 173.698 351.297 173.881C350.837 174.06 350.31 174.149 349.717 174.149ZM356.434 163.818V174H354.635V163.818H356.434ZM361.616 174.149C360.854 174.149 360.199 173.982 359.652 173.647C359.109 173.312 358.689 172.85 358.394 172.26C358.103 171.667 357.957 170.984 357.957 170.212C357.957 169.436 358.106 168.752 358.404 168.158C358.703 167.562 359.124 167.098 359.667 166.766C360.214 166.432 360.86 166.264 361.606 166.264C362.226 166.264 362.774 166.379 363.252 166.607C363.732 166.833 364.115 167.152 364.4 167.567C364.685 167.978 364.848 168.458 364.887 169.009H363.167C363.098 168.641 362.932 168.334 362.67 168.089C362.411 167.84 362.065 167.716 361.631 167.716C361.263 167.716 360.94 167.815 360.661 168.014C360.383 168.21 360.166 168.491 360.01 168.859C359.858 169.227 359.782 169.668 359.782 170.182C359.782 170.702 359.858 171.15 360.01 171.524C360.163 171.895 360.376 172.182 360.652 172.384C360.93 172.583 361.256 172.683 361.631 172.683C361.896 172.683 362.133 172.633 362.342 172.533C362.554 172.431 362.731 172.283 362.874 172.091C363.016 171.899 363.114 171.665 363.167 171.39H364.887C364.844 171.93 364.685 172.409 364.41 172.827C364.135 173.241 363.76 173.566 363.286 173.801C362.813 174.033 362.256 174.149 361.616 174.149ZM369.696 174.149C368.95 174.149 368.304 173.985 367.757 173.657C367.21 173.329 366.786 172.87 366.484 172.28C366.186 171.69 366.037 171 366.037 170.212C366.037 169.423 366.186 168.732 366.484 168.138C366.786 167.545 367.21 167.085 367.757 166.756C368.304 166.428 368.95 166.264 369.696 166.264C370.442 166.264 371.088 166.428 371.635 166.756C372.182 167.085 372.604 167.545 372.903 168.138C373.204 168.732 373.355 169.423 373.355 170.212C373.355 171 373.204 171.69 372.903 172.28C372.604 172.87 372.182 173.329 371.635 173.657C371.088 173.985 370.442 174.149 369.696 174.149ZM369.706 172.707C370.11 172.707 370.448 172.596 370.72 172.374C370.992 172.149 371.194 171.847 371.327 171.469C371.463 171.092 371.531 170.671 371.531 170.207C371.531 169.739 371.463 169.317 371.327 168.939C371.194 168.558 370.992 168.254 370.72 168.029C370.448 167.804 370.11 167.691 369.706 167.691C369.292 167.691 368.947 167.804 368.672 168.029C368.4 168.254 368.196 168.558 368.06 168.939C367.928 169.317 367.862 169.739 367.862 170.207C367.862 170.671 367.928 171.092 368.06 171.469C368.196 171.847 368.4 172.149 368.672 172.374C368.947 172.596 369.292 172.707 369.706 172.707ZM374.883 174V166.364H376.603V167.661H376.692C376.851 167.224 377.115 166.882 377.483 166.637C377.851 166.388 378.29 166.264 378.8 166.264C379.317 166.264 379.753 166.39 380.108 166.642C380.466 166.891 380.718 167.23 380.864 167.661H380.943C381.112 167.237 381.397 166.899 381.798 166.647C382.203 166.392 382.681 166.264 383.235 166.264C383.938 166.264 384.511 166.486 384.955 166.93C385.399 167.375 385.621 168.022 385.621 168.874V174H383.817V169.153C383.817 168.679 383.691 168.332 383.439 168.114C383.187 167.892 382.879 167.781 382.514 167.781C382.08 167.781 381.74 167.916 381.495 168.188C381.253 168.457 381.132 168.806 381.132 169.237V174H379.367V169.078C379.367 168.684 379.248 168.369 379.009 168.134C378.774 167.898 378.466 167.781 378.084 167.781C377.826 167.781 377.591 167.847 377.378 167.979C377.166 168.109 376.997 168.293 376.871 168.531C376.745 168.767 376.682 169.042 376.682 169.357V174H374.883ZM390.828 174.149C390.062 174.149 389.401 173.99 388.844 173.672C388.291 173.35 387.865 172.896 387.566 172.31C387.268 171.72 387.119 171.025 387.119 170.227C387.119 169.441 387.268 168.752 387.566 168.158C387.868 167.562 388.289 167.098 388.829 166.766C389.37 166.432 390.004 166.264 390.733 166.264C391.204 166.264 391.648 166.34 392.066 166.493C392.487 166.642 392.858 166.874 393.179 167.189C393.504 167.504 393.759 167.905 393.945 168.392C394.131 168.876 394.223 169.453 394.223 170.122V170.674H387.964V169.461H392.498C392.495 169.116 392.42 168.81 392.275 168.541C392.129 168.269 391.925 168.056 391.663 167.9C391.405 167.744 391.103 167.666 390.758 167.666C390.39 167.666 390.067 167.756 389.789 167.935C389.51 168.11 389.293 168.342 389.138 168.631C388.985 168.916 388.907 169.229 388.904 169.57V170.629C388.904 171.073 388.985 171.455 389.147 171.773C389.31 172.088 389.537 172.33 389.829 172.499C390.12 172.664 390.462 172.747 390.853 172.747C391.115 172.747 391.352 172.711 391.564 172.638C391.776 172.562 391.96 172.451 392.116 172.305C392.271 172.159 392.389 171.978 392.468 171.763L394.149 171.952C394.043 172.396 393.841 172.784 393.542 173.115C393.247 173.443 392.87 173.698 392.409 173.881C391.948 174.06 391.421 174.149 390.828 174.149ZM399.298 174V163.818H403.196C403.932 163.818 404.543 163.934 405.03 164.166C405.521 164.395 405.887 164.708 406.129 165.106C406.374 165.504 406.497 165.954 406.497 166.458C406.497 166.872 406.418 167.227 406.258 167.522C406.099 167.814 405.886 168.051 405.617 168.233C405.349 168.415 405.049 168.546 404.717 168.626V168.725C405.079 168.745 405.425 168.856 405.756 169.058C406.091 169.257 406.364 169.539 406.577 169.903C406.789 170.268 406.895 170.709 406.895 171.226C406.895 171.753 406.767 172.227 406.512 172.648C406.257 173.065 405.872 173.395 405.359 173.637C404.845 173.879 404.199 174 403.42 174H399.298ZM401.143 172.459H403.126C403.796 172.459 404.278 172.331 404.573 172.076C404.871 171.817 405.021 171.486 405.021 171.082C405.021 170.78 404.946 170.508 404.797 170.266C404.648 170.021 404.436 169.829 404.16 169.69C403.885 169.547 403.557 169.476 403.176 169.476H401.143V172.459ZM401.143 168.148H402.967C403.285 168.148 403.572 168.09 403.827 167.974C404.083 167.855 404.283 167.688 404.429 167.472C404.578 167.254 404.653 166.995 404.653 166.697C404.653 166.302 404.513 165.978 404.235 165.722C403.96 165.467 403.551 165.339 403.007 165.339H401.143V168.148ZM410.617 174.154C410.133 174.154 409.698 174.068 409.31 173.896C408.925 173.72 408.62 173.461 408.395 173.12C408.173 172.779 408.062 172.358 408.062 171.857C408.062 171.426 408.141 171.07 408.301 170.788C408.46 170.507 408.677 170.281 408.952 170.112C409.227 169.943 409.537 169.816 409.881 169.729C410.229 169.64 410.589 169.575 410.96 169.536C411.408 169.489 411.771 169.448 412.049 169.411C412.328 169.371 412.53 169.312 412.656 169.232C412.785 169.149 412.85 169.022 412.85 168.849V168.82C412.85 168.445 412.738 168.155 412.516 167.95C412.294 167.744 411.975 167.641 411.557 167.641C411.116 167.641 410.766 167.737 410.508 167.93C410.253 168.122 410.08 168.349 409.991 168.611L408.31 168.372C408.443 167.908 408.662 167.52 408.967 167.209C409.272 166.894 409.645 166.659 410.085 166.503C410.526 166.344 411.013 166.264 411.547 166.264C411.915 166.264 412.281 166.307 412.646 166.393C413.01 166.48 413.343 166.622 413.645 166.821C413.947 167.017 414.189 167.283 414.371 167.621C414.556 167.96 414.649 168.382 414.649 168.889V174H412.919V172.951H412.859C412.75 173.163 412.596 173.362 412.397 173.548C412.202 173.73 411.955 173.877 411.656 173.99C411.361 174.099 411.015 174.154 410.617 174.154ZM411.085 172.832C411.446 172.832 411.759 172.76 412.024 172.618C412.289 172.472 412.493 172.28 412.636 172.041C412.782 171.803 412.854 171.542 412.854 171.261V170.361C412.798 170.407 412.702 170.45 412.566 170.49C412.434 170.53 412.284 170.565 412.119 170.594C411.953 170.624 411.789 170.651 411.627 170.674C411.464 170.697 411.323 170.717 411.204 170.734C410.935 170.77 410.695 170.83 410.483 170.913C410.271 170.996 410.104 171.112 409.981 171.261C409.858 171.406 409.797 171.595 409.797 171.827C409.797 172.159 409.918 172.409 410.16 172.578C410.402 172.747 410.71 172.832 411.085 172.832ZM419.79 174.149C419.028 174.149 418.373 173.982 417.826 173.647C417.283 173.312 416.863 172.85 416.568 172.26C416.277 171.667 416.131 170.984 416.131 170.212C416.131 169.436 416.28 168.752 416.578 168.158C416.877 167.562 417.297 167.098 417.841 166.766C418.388 166.432 419.034 166.264 419.78 166.264C420.4 166.264 420.948 166.379 421.426 166.607C421.906 166.833 422.289 167.152 422.574 167.567C422.859 167.978 423.021 168.458 423.061 169.009H421.341C421.271 168.641 421.106 168.334 420.844 168.089C420.585 167.84 420.239 167.716 419.805 167.716C419.437 167.716 419.114 167.815 418.835 168.014C418.557 168.21 418.34 168.491 418.184 168.859C418.032 169.227 417.955 169.668 417.955 170.182C417.955 170.702 418.032 171.15 418.184 171.524C418.336 171.895 418.55 172.182 418.825 172.384C419.104 172.583 419.43 172.683 419.805 172.683C420.07 172.683 420.307 172.633 420.516 172.533C420.728 172.431 420.905 172.283 421.048 172.091C421.19 171.899 421.288 171.665 421.341 171.39H423.061C423.018 171.93 422.859 172.409 422.584 172.827C422.309 173.241 421.934 173.566 421.46 173.801C420.986 174.033 420.43 174.149 419.79 174.149ZM426.18 171.604L426.175 169.431H426.463L429.207 166.364H431.31L427.935 170.122H427.562L426.18 171.604ZM424.539 174V163.818H426.339V174H424.539ZM429.332 174L426.846 170.525L428.059 169.257L431.484 174H429.332ZM434.712 163.818L434.548 171.007H432.947L432.788 163.818H434.712ZM433.748 174.109C433.446 174.109 433.187 174.003 432.972 173.791C432.76 173.579 432.654 173.321 432.654 173.016C432.654 172.717 432.76 172.462 432.972 172.25C433.187 172.038 433.446 171.932 433.748 171.932C434.043 171.932 434.298 172.038 434.513 172.25C434.732 172.462 434.841 172.717 434.841 173.016C434.841 173.218 434.79 173.402 434.687 173.567C434.588 173.733 434.455 173.866 434.29 173.965C434.127 174.061 433.946 174.109 433.748 174.109Z" fill="#334155"/>
<path d="M370.05 146L384.505 120.1L398.995 146H393.395L384.505 130.11L375.65 146H370.05ZM384.505 146C383.42 146 382.51 145.09 382.51 144.005C382.51 142.885 383.42 142.01 384.505 142.01C385.59 142.01 386.5 142.885 386.5 144.005C386.5 145.09 385.59 146 384.505 146Z" fill="#7400FF"/>
<g filter="url(#filter5_d_102_1434)">
<rect x="158.353" y="162.046" width="64" height="64" rx="32" transform="rotate(12 158.353 162.046)" fill="#1E293B" fill-opacity="0.01"/>
<rect x="158.738" y="162.639" width="63" height="63" rx="31.5" transform="rotate(12 158.738 162.639)" stroke="url(#paint6_angular_102_1434)"/>
</g>
<g filter="url(#filter6_d_102_1434)">
<rect x="549.376" y="153.169" width="56" height="56" rx="28" transform="rotate(-8 549.376 153.169)" fill="#1E293B" fill-opacity="0.01"/>
<rect x="549.941" y="153.595" width="55" height="55" rx="27.5" transform="rotate(-8 549.941 153.595)" stroke="url(#paint7_angular_102_1434)"/>
</g>
<g filter="url(#filter7_d_102_1434)">
<rect x="591.832" y="237.812" width="72" height="72" rx="36" transform="rotate(8 591.832 237.812)" fill="#1E293B" fill-opacity="0.01"/>
<rect x="592.258" y="238.376" width="71" height="71" rx="35.5" transform="rotate(8 592.258 238.376)" stroke="url(#paint8_angular_102_1434)"/>
</g>
<g filter="url(#filter8_d_102_1434)">
<rect x="70.4717" y="210.472" width="60" height="60" rx="30" fill="#1E293B" fill-opacity="0.01"/>
<rect x="70.9717" y="210.972" width="59" height="59" rx="29.5" stroke="url(#paint9_angular_102_1434)"/>
</g>
<g filter="url(#filter9_d_102_1434)">
<rect x="175.915" y="261.125" width="40" height="40" rx="20" transform="rotate(4 175.915 261.125)" fill="#1E293B" fill-opacity="0.01"/>
<rect x="176.379" y="261.659" width="39" height="39" rx="19.5" transform="rotate(4 176.379 261.659)" stroke="url(#paint10_angular_102_1434)"/>
</g>
<g filter="url(#filter10_d_102_1434)">
<rect x="647.205" y="168.09" width="52" height="52" rx="26" transform="rotate(4 647.205 168.09)" fill="#1E293B" fill-opacity="0.01"/>
<rect x="647.669" y="168.624" width="51" height="51" rx="25.5" transform="rotate(4 647.669 168.624)" stroke="url(#paint11_angular_102_1434)"/>
</g>
<path fill-rule="evenodd" clip-rule="evenodd" d="M598.241 222.897C589.92 229.372 579.312 234.019 567.948 236.362C556.575 238.749 544.447 238.88 532.701 237.115C520.941 235.389 509.559 231.985 498.866 227.959C488.158 223.931 478.091 219.3 468.655 214.919C466.344 213.847 466.51 213.392 468.885 214.41C478.826 218.683 488.948 222.8 499.349 226.197C509.741 229.587 520.412 232.316 531.253 233.624C542.073 234.974 553.036 234.835 563.64 232.972C574.216 231.062 584.412 227.404 593.268 221.806C599.652 217.685 603.003 215.179 604.1 215.438C604.617 215.541 604.471 216.254 603.561 217.556C603.098 218.198 602.475 219.023 601.596 219.922C600.691 220.789 599.589 221.804 598.241 222.897Z" fill="url(#paint12_linear_102_1434)" fill-opacity="0.32"/>
<path fill-rule="evenodd" clip-rule="evenodd" d="M126.241 299.897C117.92 306.372 107.312 311.019 95.9484 313.362C84.575 315.749 72.4472 315.88 60.7012 314.115C48.9413 312.389 37.5588 308.985 26.8659 304.959C16.1583 300.931 6.09127 296.3 -3.34532 291.919C-5.65641 290.847 -5.49048 290.392 -3.11533 291.41C6.8257 295.683 16.9484 299.8 27.3488 303.197C37.7405 306.587 48.4123 309.316 59.2526 310.624C70.0732 311.974 81.0356 311.835 91.6396 309.972C102.216 308.062 112.412 304.404 121.268 298.806C127.652 294.685 131.003 292.179 132.1 292.438C132.617 292.541 132.471 293.254 131.561 294.556C131.098 295.198 130.475 296.023 129.596 296.922C128.691 297.789 127.589 298.804 126.241 299.897Z" fill="url(#paint13_linear_102_1434)" fill-opacity="0.32"/>
<path fill-rule="evenodd" clip-rule="evenodd" d="M729.241 150.023C720.92 143.549 710.312 138.902 698.948 136.559C687.575 134.171 675.447 134.04 663.701 135.806C651.941 137.532 640.559 140.936 629.866 144.962C619.158 148.99 609.091 153.621 599.655 158.002C597.344 159.073 597.51 159.529 599.885 158.51C609.826 154.237 619.948 150.12 630.349 146.723C640.741 143.334 651.412 140.605 662.253 139.297C673.073 137.947 684.036 138.085 694.64 139.949C705.216 141.859 715.412 145.517 724.268 151.114C730.652 155.235 734.003 157.741 735.1 157.482C735.617 157.38 735.471 156.666 734.561 155.365C734.098 154.723 733.475 153.898 732.596 152.999C731.691 152.132 730.589 151.116 729.241 150.023Z" fill="url(#paint14_linear_102_1434)" fill-opacity="0.32"/>
<path fill-rule="evenodd" clip-rule="evenodd" d="M159.77 151.023C168.092 144.549 178.7 139.902 190.063 137.559C201.437 135.171 213.564 135.04 225.31 136.806C237.07 138.532 248.453 141.936 259.146 145.962C269.853 149.99 279.92 154.621 289.357 159.002C291.668 160.073 291.502 160.529 289.127 159.51C279.186 155.237 269.063 151.12 258.663 147.723C248.271 144.334 237.599 141.605 226.759 140.297C215.939 138.947 204.976 139.085 194.372 140.949C183.795 142.859 173.599 146.517 164.743 152.114C158.36 156.235 155.008 158.741 153.912 158.482C153.395 158.38 153.541 157.666 154.451 156.365C154.913 155.723 155.536 154.898 156.415 153.999C157.321 153.132 158.423 152.116 159.77 151.023Z" fill="url(#paint15_linear_102_1434)" fill-opacity="0.32"/>
</g>
<defs>
<filter id="filter0_bi_102_1434" x="232.817" y="28.8172" width="302.366" height="428.366" filterUnits="userSpaceOnUse" color-interpolation-filters="sRGB">
<feFlood flood-opacity="0" result="BackgroundImageFix"/>
<feGaussianBlur in="BackgroundImageFix" stdDeviation="13.5914"/>
<feComposite in2="SourceAlpha" operator="in" result="effect1_backgroundBlur_102_1434"/>
<feBlend mode="normal" in="SourceGraphic" in2="effect1_backgroundBlur_102_1434" result="shape"/>
<feColorMatrix in="SourceAlpha" type="matrix" values="0 0 0 0 0 0 0 0 0 0 0 0 0 0 0 0 0 0 127 0" result="hardAlpha"/>
<feMorphology radius="4" operator="erode" in="SourceAlpha" result="effect2_innerShadow_102_1434"/>
<feOffset dy="1"/>
<feGaussianBlur stdDeviation="6"/>
<feComposite in2="hardAlpha" operator="arithmetic" k2="-1" k3="1"/>
<feColorMatrix type="matrix" values="0 0 0 0 0.0588235 0 0 0 0 0.0901961 0 0 0 0 0.164706 0 0 0 0.24 0"/>
<feBlend mode="normal" in2="shape" result="effect2_innerShadow_102_1434"/>
</filter>
<filter id="filter1_b_102_1434" x="238.817" y="34.8172" width="290.366" height="486.366" filterUnits="userSpaceOnUse" color-interpolation-filters="sRGB">
<feFlood flood-opacity="0" result="BackgroundImageFix"/>
<feGaussianBlur in="BackgroundImageFix" stdDeviation="13.5914"/>
<feComposite in2="SourceAlpha" operator="in" result="effect1_backgroundBlur_102_1434"/>
<feBlend mode="normal" in="SourceGraphic" in2="effect1_backgroundBlur_102_1434" result="shape"/>
</filter>
<filter id="filter2_d_102_1434" x="278" y="196" width="212" height="32" filterUnits="userSpaceOnUse" color-interpolation-filters="sRGB">
<feFlood flood-opacity="0" result="BackgroundImageFix"/>
<feColorMatrix in="SourceAlpha" type="matrix" values="0 0 0 0 0 0 0 0 0 0 0 0 0 0 0 0 0 0 127 0" result="hardAlpha"/>
<feOffset dy="1"/>
<feGaussianBlur stdDeviation="1"/>
<feColorMatrix type="matrix" values="0 0 0 0 0.0588235 0 0 0 0 0.0901961 0 0 0 0 0.164706 0 0 0 0.04 0"/>
<feBlend mode="normal" in2="BackgroundImageFix" result="effect1_dropShadow_102_1434"/>
<feBlend mode="normal" in="SourceGraphic" in2="effect1_dropShadow_102_1434" result="shape"/>
</filter>
<filter id="filter3_d_102_1434" x="278" y="232" width="212" height="32" filterUnits="userSpaceOnUse" color-interpolation-filters="sRGB">
<feFlood flood-opacity="0" result="BackgroundImageFix"/>
<feColorMatrix in="SourceAlpha" type="matrix" values="0 0 0 0 0 0 0 0 0 0 0 0 0 0 0 0 0 0 127 0" result="hardAlpha"/>
<feOffset dy="1"/>
<feGaussianBlur stdDeviation="1"/>
<feColorMatrix type="matrix" values="0 0 0 0 0.0588235 0 0 0 0 0.0901961 0 0 0 0 0.164706 0 0 0 0.04 0"/>
<feBlend mode="normal" in2="BackgroundImageFix" result="effect1_dropShadow_102_1434"/>
<feBlend mode="normal" in="SourceGraphic" in2="effect1_dropShadow_102_1434" result="shape"/>
</filter>
<filter id="filter4_d_102_1434" x="278" y="272" width="212" height="32" filterUnits="userSpaceOnUse" color-interpolation-filters="sRGB">
<feFlood flood-opacity="0" result="BackgroundImageFix"/>
<feColorMatrix in="SourceAlpha" type="matrix" values="0 0 0 0 0 0 0 0 0 0 0 0 0 0 0 0 0 0 127 0" result="hardAlpha"/>
<feOffset dy="1"/>
<feGaussianBlur stdDeviation="1"/>
<feColorMatrix type="matrix" values="0 0 0 0 0.0588235 0 0 0 0 0.0901961 0 0 0 0 0.164706 0 0 0 0.04 0"/>
<feBlend mode="normal" in2="BackgroundImageFix" result="effect1_dropShadow_102_1434"/>
<feBlend mode="normal" in="SourceGraphic" in2="effect1_dropShadow_102_1434" result="shape"/>
</filter>
<filter id="filter5_d_102_1434" x="118.993" y="147.993" width="128.014" height="128.013" filterUnits="userSpaceOnUse" color-interpolation-filters="sRGB">
<feFlood flood-opacity="0" result="BackgroundImageFix"/>
<feColorMatrix in="SourceAlpha" type="matrix" values="0 0 0 0 0 0 0 0 0 0 0 0 0 0 0 0 0 0 127 0" result="hardAlpha"/>
<feOffset dy="12"/>
<feGaussianBlur stdDeviation="16"/>
<feColorMatrix type="matrix" values="0 0 0 0 0.0588235 0 0 0 0 0.0901961 0 0 0 0 0.164706 0 0 0 0.32 0"/>
<feBlend mode="normal" in2="BackgroundImageFix" result="effect1_dropShadow_102_1434"/>
<feBlend mode="normal" in="SourceGraphic" in2="effect1_dropShadow_102_1434" result="shape"/>
</filter>
<filter id="filter6_d_102_1434" x="520.997" y="128.997" width="120.007" height="120.007" filterUnits="userSpaceOnUse" color-interpolation-filters="sRGB">
<feFlood flood-opacity="0" result="BackgroundImageFix"/>
<feColorMatrix in="SourceAlpha" type="matrix" values="0 0 0 0 0 0 0 0 0 0 0 0 0 0 0 0 0 0 127 0" result="hardAlpha"/>
<feOffset dy="12"/>
<feGaussianBlur stdDeviation="16"/>
<feColorMatrix type="matrix" values="0 0 0 0 0.0588235 0 0 0 0 0.0901961 0 0 0 0 0.164706 0 0 0 0.32 0"/>
<feBlend mode="normal" in2="BackgroundImageFix" result="effect1_dropShadow_102_1434"/>
<feBlend mode="normal" in="SourceGraphic" in2="effect1_dropShadow_102_1434" result="shape"/>
</filter>
<filter id="filter7_d_102_1434" x="554.467" y="222.467" width="136.009" height="136.009" filterUnits="userSpaceOnUse" color-interpolation-filters="sRGB">
<feFlood flood-opacity="0" result="BackgroundImageFix"/>
<feColorMatrix in="SourceAlpha" type="matrix" values="0 0 0 0 0 0 0 0 0 0 0 0 0 0 0 0 0 0 127 0" result="hardAlpha"/>
<feOffset dy="12"/>
<feGaussianBlur stdDeviation="16"/>
<feColorMatrix type="matrix" values="0 0 0 0 0.0588235 0 0 0 0 0.0901961 0 0 0 0 0.164706 0 0 0 0.32 0"/>
<feBlend mode="normal" in2="BackgroundImageFix" result="effect1_dropShadow_102_1434"/>
<feBlend mode="normal" in="SourceGraphic" in2="effect1_dropShadow_102_1434" result="shape"/>
</filter>
<filter id="filter8_d_102_1434" x="38.4717" y="190.472" width="124" height="124" filterUnits="userSpaceOnUse" color-interpolation-filters="sRGB">
<feFlood flood-opacity="0" result="BackgroundImageFix"/>
<feColorMatrix in="SourceAlpha" type="matrix" values="0 0 0 0 0 0 0 0 0 0 0 0 0 0 0 0 0 0 127 0" result="hardAlpha"/>
<feOffset dy="12"/>
<feGaussianBlur stdDeviation="16"/>
<feColorMatrix type="matrix" values="0 0 0 0 0.0588235 0 0 0 0 0.0901961 0 0 0 0 0.164706 0 0 0 0.32 0"/>
<feBlend mode="normal" in2="BackgroundImageFix" result="effect1_dropShadow_102_1434"/>
<feBlend mode="normal" in="SourceGraphic" in2="effect1_dropShadow_102_1434" result="shape"/>
</filter>
<filter id="filter9_d_102_1434" x="142.471" y="242.471" width="104.001" height="104.002" filterUnits="userSpaceOnUse" color-interpolation-filters="sRGB">
<feFlood flood-opacity="0" result="BackgroundImageFix"/>
<feColorMatrix in="SourceAlpha" type="matrix" values="0 0 0 0 0 0 0 0 0 0 0 0 0 0 0 0 0 0 127 0" result="hardAlpha"/>
<feOffset dy="12"/>
<feGaussianBlur stdDeviation="16"/>
<feColorMatrix type="matrix" values="0 0 0 0 0.0588235 0 0 0 0 0.0901961 0 0 0 0 0.164706 0 0 0 0.32 0"/>
<feBlend mode="normal" in2="BackgroundImageFix" result="effect1_dropShadow_102_1434"/>
<feBlend mode="normal" in="SourceGraphic" in2="effect1_dropShadow_102_1434" result="shape"/>
</filter>
<filter id="filter10_d_102_1434" x="613.327" y="149.84" width="116.002" height="116.002" filterUnits="userSpaceOnUse" color-interpolation-filters="sRGB">
<feFlood flood-opacity="0" result="BackgroundImageFix"/>
<feColorMatrix in="SourceAlpha" type="matrix" values="0 0 0 0 0 0 0 0 0 0 0 0 0 0 0 0 0 0 127 0" result="hardAlpha"/>
<feOffset dy="12"/>
<feGaussianBlur stdDeviation="16"/>
<feColorMatrix type="matrix" values="0 0 0 0 0.0588235 0 0 0 0 0.0901961 0 0 0 0 0.164706 0 0 0 0.32 0"/>
<feBlend mode="normal" in2="BackgroundImageFix" result="effect1_dropShadow_102_1434"/>
<feBlend mode="normal" in="SourceGraphic" in2="effect1_dropShadow_102_1434" result="shape"/>
</filter>
<radialGradient id="paint0_radial_102_1434" cx="0" cy="0" r="1" gradientUnits="userSpaceOnUse" gradientTransform="translate(384 400) rotate(-90) scale(488.681 938.268)">
<stop stop-color="#A855F7"/>
<stop offset="1" stop-color="#0F172A" stop-opacity="0.01"/>
</radialGradient>
<linearGradient id="paint1_linear_102_1434" x1="614" y1="39.5" x2="154" y2="39.5" gradientUnits="userSpaceOnUse">
<stop stop-color="#334155" stop-opacity="0.01"/>
<stop offset="0.526196" stop-color="#CBD5E1" stop-opacity="0.48"/>
<stop offset="1" stop-color="#334155" stop-opacity="0.01"/>
</linearGradient>
<linearGradient id="paint2_linear_102_1434" x1="239" y1="11" x2="239" y2="400" gradientUnits="userSpaceOnUse">
<stop stop-color="#334155" stop-opacity="0.01"/>
<stop offset="0.526196" stop-color="#CBD5E1" stop-opacity="0.64"/>
<stop offset="1" stop-color="#334155" stop-opacity="0.01"/>
</linearGradient>
<linearGradient id="paint3_linear_102_1434" x1="528" y1="11" x2="528" y2="400" gradientUnits="userSpaceOnUse">
<stop stop-color="#334155" stop-opacity="0.01"/>
<stop offset="0.526196" stop-color="#CBD5E1" stop-opacity="0.64"/>
<stop offset="1" stop-color="#334155" stop-opacity="0.01"/>
</linearGradient>
<linearGradient id="paint4_linear_102_1434" x1="382.014" y1="-109.735" x2="58.4433" y2="110.889" gradientUnits="userSpaceOnUse">
<stop stop-color="#F8FAFC" stop-opacity="0.88"/>
<stop offset="0.493984" stop-color="#F8FAFC" stop-opacity="0.48"/>
<stop offset="1" stop-color="#F8FAFC"/>
</linearGradient>
<linearGradient id="paint5_linear_102_1434" x1="382.11" y1="-129.437" x2="39.2368" y2="63.1674" gradientUnits="userSpaceOnUse">
<stop stop-color="#F8FAFC" stop-opacity="0.64"/>
<stop offset="0.532692" stop-color="#F8FAFC" stop-opacity="0.72"/>
<stop offset="1" stop-color="#F8FAFC"/>
</linearGradient>
<radialGradient id="paint6_angular_102_1434" cx="0" cy="0" r="1" gradientUnits="userSpaceOnUse" gradientTransform="translate(190.353 194.046) scale(32)">
<stop offset="0.471864" stop-color="#1E293B"/>
<stop offset="0.763822" stop-color="#64748B"/>
<stop offset="1" stop-color="#1E293B" stop-opacity="0.01"/>
</radialGradient>
<radialGradient id="paint7_angular_102_1434" cx="0" cy="0" r="1" gradientUnits="userSpaceOnUse" gradientTransform="translate(577.376 181.169) scale(28)">
<stop offset="0.452032" stop-color="#1E293B"/>
<stop offset="0.763822" stop-color="#64748B"/>
<stop offset="1" stop-color="#1E293B" stop-opacity="0.01"/>
</radialGradient>
<radialGradient id="paint8_angular_102_1434" cx="0" cy="0" r="1" gradientUnits="userSpaceOnUse" gradientTransform="translate(627.832 273.812) scale(36)">
<stop offset="0.452032" stop-color="#1E293B" stop-opacity="0.01"/>
<stop offset="0.763822" stop-color="#64748B"/>
<stop offset="1" stop-color="#1E293B" stop-opacity="0.01"/>
</radialGradient>
<radialGradient id="paint9_angular_102_1434" cx="0" cy="0" r="1" gradientUnits="userSpaceOnUse" gradientTransform="translate(100.472 240.472) scale(30)">
<stop offset="0.452032" stop-color="#1E293B" stop-opacity="0.01"/>
<stop offset="0.763822" stop-color="#64748B"/>
<stop offset="1" stop-color="#1E293B" stop-opacity="0.01"/>
</radialGradient>
<radialGradient id="paint10_angular_102_1434" cx="0" cy="0" r="1" gradientUnits="userSpaceOnUse" gradientTransform="translate(195.915 281.125) scale(20)">
<stop offset="0.452032" stop-color="#1E293B" stop-opacity="0.01"/>
<stop offset="0.763822" stop-color="#64748B"/>
<stop offset="1" stop-color="#1E293B" stop-opacity="0.01"/>
</radialGradient>
<radialGradient id="paint11_angular_102_1434" cx="0" cy="0" r="1" gradientUnits="userSpaceOnUse" gradientTransform="translate(673.205 194.09) scale(26)">
<stop offset="0.452032" stop-color="#1E293B"/>
<stop offset="0.763822" stop-color="#64748B"/>
<stop offset="1" stop-color="#1E293B" stop-opacity="0.01"/>
</radialGradient>
<linearGradient id="paint12_linear_102_1434" x1="467" y1="213.86" x2="598.072" y2="186" gradientUnits="userSpaceOnUse">
<stop stop-color="white" stop-opacity="0.64"/>
<stop offset="1" stop-color="white" stop-opacity="0.88"/>
</linearGradient>
<linearGradient id="paint13_linear_102_1434" x1="-5" y1="290.86" x2="126.072" y2="263" gradientUnits="userSpaceOnUse">
<stop stop-color="white" stop-opacity="0.64"/>
<stop offset="1" stop-color="white" stop-opacity="0.88"/>
</linearGradient>
<linearGradient id="paint14_linear_102_1434" x1="598" y1="159.06" x2="729.072" y2="186.921" gradientUnits="userSpaceOnUse">
<stop stop-color="white" stop-opacity="0.64"/>
<stop offset="1" stop-color="white" stop-opacity="0.88"/>
</linearGradient>
<linearGradient id="paint15_linear_102_1434" x1="291.012" y1="160.06" x2="159.94" y2="187.921" gradientUnits="userSpaceOnUse">
<stop stop-color="white" stop-opacity="0.64"/>
<stop offset="1" stop-color="white" stop-opacity="0.88"/>
</linearGradient>
<clipPath id="clip0_102_1434">
<rect width="208" height="208" fill="white" transform="translate(280 197)"/>
</clipPath>
<clipPath id="clip1_102_1434">
<rect width="208" height="28" fill="white" transform="translate(280 233)"/>
</clipPath>
<clipPath id="clip2_102_1434">
<rect width="208" height="28" fill="white" transform="translate(280 273)"/>
</clipPath>
</defs>
</svg>
