<svg width="74" height="46" viewBox="0 0 74 46" fill="none" xmlns="http://www.w3.org/2000/svg">
<g id="Group">
<g id="Group_2">
<g id="Group_3">
<path id="Vector" d="M74 3.88244C73.7992 1.89368 72.5805 0.3086 71.0284 0C64.2256 0 9.80404 0 3.00118 0C1.30111 0.338213 0 2.20696 0 4.45912C0 8.07971 0 37.0382 0 40.6573C0 43.151 1.59197 45.1725 3.55715 45.1725C10.248 45.1725 63.7816 45.1725 70.4725 45.1725C72.2819 45.1725 73.7761 43.4565 74 41.2355C74 33.7652 74 7.61681 74 3.88244Z" fill="#F6C700"/>
</g>
<g id="Group_4">
<path id="Vector_2" d="M8.92578 9.07739H14.7982V36.454H8.92578V9.07739Z" fill="black"/>
</g>
<g id="Group_5">
<path id="Vector_3" d="M25.8924 21.6877C25.3879 17.5154 25.1073 15.1962 25.052 14.7333C24.8062 12.4998 24.5719 10.5563 24.348 8.89795C23.8397 8.89795 21.3031 8.89795 16.7344 8.89795V36.2745H21.8783L21.8964 18.198L24.061 36.2745H27.725L29.7777 17.7959L29.797 36.2745H34.9242V8.89795H27.2527L25.8924 21.6877Z" fill="black"/>
</g>
<g id="Group_6">
<path id="Vector_4" d="M44.6201 14.5933C44.6844 14.9424 44.7179 15.7342 44.7179 16.9717C44.7179 18.0331 44.7179 26.5242 44.7179 27.5856C44.7179 29.4076 44.6201 30.5236 44.4257 30.935C44.2301 31.3465 43.7102 31.5507 42.8672 31.5507C42.8672 29.7536 42.8672 15.3772 42.8672 13.5802C43.5069 13.5802 43.9431 13.6628 44.1748 13.8249C44.4064 13.9885 44.5557 14.2441 44.6201 14.5933ZM47.2725 35.9958C47.9713 35.8103 48.5582 35.483 49.0343 35.017C49.5092 34.5494 49.8425 33.9026 50.033 33.075C50.2248 32.2489 50.338 30.6077 50.338 28.153C50.338 27.1929 50.338 19.5013 50.338 18.5396C50.338 15.9492 50.2544 14.213 50.1244 13.3308C49.9931 12.4471 49.6675 11.6444 49.1463 10.9244C48.6238 10.2043 47.8619 9.68684 46.8607 9.372C45.8581 9.05717 44.2237 8.89819 41.3808 8.89819C41.0887 8.89819 39.6293 8.89819 37 8.89819V36.2748H44.1143C45.7539 36.2124 46.8066 36.1205 47.2725 35.9958Z" fill="black"/>
</g>
<g id="Group_7">
<path id="Vector_5" d="M59.8145 31.9044C59.7064 32.252 59.2328 32.4281 58.875 32.4281C58.525 32.4281 58.292 32.2598 58.1736 31.9216C58.0552 31.5849 57.9973 30.8165 57.9973 29.6133C57.9973 28.8901 57.9973 23.1015 57.9973 22.3783C57.9973 21.1315 58.0488 20.3537 58.153 20.0436C58.256 19.7365 58.4825 19.5807 58.8325 19.5807C59.1903 19.5807 59.6704 19.7568 59.7939 20.1106C59.9162 20.4644 59.9779 21.2203 59.9779 22.3783C59.9779 22.8459 59.9779 25.1838 59.9779 29.3935C59.9406 30.8352 59.8866 31.6722 59.8145 31.9044ZM52.3398 36.0362H57.6267C57.8467 34.9904 57.9677 34.4091 57.9922 34.2922C58.4709 34.9935 58.9973 35.5203 59.5751 35.8695C60.1504 36.2201 61.0114 36.3947 61.678 36.3947C62.6059 36.3947 63.4064 36.1001 64.082 35.5094C64.7564 34.9203 65.1862 34.222 65.369 33.4194C65.5517 32.6151 65.6431 31.3932 65.6431 29.7505C65.6431 28.9821 65.6431 22.8381 65.6431 22.0697C65.6431 20.4176 65.6122 19.3391 65.5517 18.8326C65.4913 18.326 65.3111 17.8101 65.0112 17.2818C64.7114 16.7534 64.2751 16.3435 63.7037 16.0505C63.1323 15.7575 62.4579 15.611 61.6806 15.611C61.0049 15.611 60.1401 15.7746 59.5635 16.0972C58.9883 16.4199 58.4658 16.9093 57.9973 17.5654C57.9973 16.9716 57.9973 14.0041 57.9973 8.65967H52.3398V36.0362Z" fill="black"/>
</g>
</g>
</g>
</svg>
