<svg width="34" height="34" viewBox="0 0 34 34" fill="none" xmlns="http://www.w3.org/2000/svg">
<path d="M5.25805 18.7891C4.94507 18.8934 4.66067 19.0692 4.42739 19.3025C4.1941 19.5358 4.01833 19.8202 3.91398 20.1332L0 31.8751L0.311445 32.1866L6.47992 26.0181C6.43609 25.8481 6.37566 25.6841 6.37566 25.5001C6.37566 24.3267 7.32727 23.3751 8.50066 23.3751C9.67406 23.3751 10.6257 24.3267 10.6257 25.5001C10.6257 26.6735 9.67406 27.6251 8.50066 27.6251C8.31672 27.6251 8.1527 27.5647 7.9827 27.5209L1.81422 33.6893L2.125 34.0001L13.867 30.0861C14.18 29.9819 14.4644 29.8062 14.6977 29.5729C14.931 29.3396 15.1068 29.0551 15.211 28.7421L17.4071 23.1593L10.8408 16.5931L5.25805 18.7891ZM24.5205 1.88075L12.3609 15.1281L18.8587 21.626L32.1061 9.46633C37.7453 4.48122 29.4664 -3.71465 24.5205 1.88075Z" fill="white"/>
</svg>
