<svg width="34" height="34" viewBox="0 0 34 34" fill="none" xmlns="http://www.w3.org/2000/svg">
<path id="Vector" d="M31.5714 13.3571H20.6429V2.42857C20.6429 1.08754 19.5553 0 18.2143 0H15.7857C14.4447 0 13.3571 1.08754 13.3571 2.42857V13.3571H2.42857C1.08754 13.3571 0 14.4447 0 15.7857V18.2143C0 19.5553 1.08754 20.6429 2.42857 20.6429H13.3571V31.5714C13.3571 32.9125 14.4447 34 15.7857 34H18.2143C19.5553 34 20.6429 32.9125 20.6429 31.5714V20.6429H31.5714C32.9125 20.6429 34 19.5553 34 18.2143V15.7857C34 14.4447 32.9125 13.3571 31.5714 13.3571Z" fill="white"/>
</svg>
