<svg width="1376" height="658" viewBox="0 0 1376 658" fill="none" xmlns="http://www.w3.org/2000/svg">
<path d="M0 48C0 21.4903 21.4903 0 48 0H1328C1354.51 0 1376 21.4903 1376 48V658H0V48Z" fill="url(#paint0_radial_102_1106)"/>
<mask id="mask0_102_1106" style="mask-type:luminance" maskUnits="userSpaceOnUse" x="0" y="0" width="1376" height="658">
<path d="M0 48C0 21.4903 21.4903 0 48 0H1328C1354.51 0 1376 21.4903 1376 48V658H0V48Z" fill="white"/>
</mask>
<g mask="url(#mask0_102_1106)">
<g filter="url(#filter0_f_102_1106)">
<path fill-rule="evenodd" clip-rule="evenodd" d="M155 -216L616 153L332 211L155 -216Z" fill="url(#paint1_linear_102_1106)"/>
</g>
</g>
<defs>
<filter id="filter0_f_102_1106" x="19.0859" y="-351.914" width="732.828" height="698.828" filterUnits="userSpaceOnUse" color-interpolation-filters="sRGB">
<feFlood flood-opacity="0" result="BackgroundImageFix"/>
<feBlend mode="normal" in="SourceGraphic" in2="BackgroundImageFix" result="shape"/>
<feGaussianBlur stdDeviation="67.957" result="effect1_foregroundBlur_102_1106"/>
</filter>
<radialGradient id="paint0_radial_102_1106" cx="0" cy="0" r="1" gradientUnits="userSpaceOnUse" gradientTransform="translate(688) rotate(90) scale(702.419 1468.89)">
<stop stop-color="#C084FC"/>
<stop offset="0.223497" stop-color="#A855F7" stop-opacity="0.64"/>
<stop offset="1" stop-color="#0F172A" stop-opacity="0.01"/>
</radialGradient>
<linearGradient id="paint1_linear_102_1106" x1="48.4216" y1="-89.0141" x2="170.568" y2="281.799" gradientUnits="userSpaceOnUse">
<stop stop-color="white"/>
<stop offset="1" stop-color="white" stop-opacity="0.01"/>
</linearGradient>
</defs>
</svg>
